<svg width="1048" height="1048" viewBox="0 0 1048 1048" fill="none" xmlns="http://www.w3.org/2000/svg">
<path d="M517.074 345.026C450.415 345.22 414.793 357.745 407.179 423.317C408.645 462.437 419.465 492.397 451.96 499.295C451.96 499.295 451.96 499.295 451.978 499.295C471.807 489.906 493.968 484.677 517.356 484.677C540.674 484.677 562.764 489.88 582.558 499.207C582.576 499.207 582.576 499.207 582.576 499.207C614.762 492.149 625.52 462.278 626.968 423.309C619.355 357.745 581.507 345.22 517.074 345.026Z" fill="white"/>
<path d="M517.065 216C340.299 216 197 359.299 197 536.065C197 712.83 340.299 856.129 517.065 856.129C693.83 856.129 837.129 712.83 837.129 536.065C837.129 359.299 693.83 216 517.065 216ZM670.76 638.089C670.76 722.467 602.634 790.936 518.39 791.493C433.606 792.049 363.944 722.882 363.944 638.089C363.944 617.448 368.016 597.76 375.408 579.795C381.079 566.007 379.489 550.294 371.407 537.769C317.282 453.922 327.236 389.904 368.13 335.46C410.482 291.138 461.093 277.943 515.961 281.069H518.178C573.045 277.943 623.665 291.138 666.008 335.46C710.188 394.285 718.252 464.265 648.449 558.349V558.367C662.598 581.596 670.76 608.889 670.76 638.089Z" fill="white"/>
<path d="M371.443 609.242C379.392 661.169 367.221 713.396 452.64 764.2C452.631 764.2 355.262 736.192 371.443 609.242Z" fill="white"/>
<path d="M411.357 481.197C421.426 494.137 434.675 502.863 452.464 505.557C480.454 488.705 510.352 487.397 540.771 490.33C506.554 487.998 476.877 495.594 452.464 514.69C433.288 506.034 421.205 494.128 411.357 481.197Z" fill="white"/>
<path d="M524 1020.42C391.404 1020.42 266.74 968.786 172.977 875.023C79.2137 781.26 27.5784 656.596 27.5784 524C27.5784 391.404 79.2137 266.74 172.977 172.977C266.74 79.2136 391.404 27.5784 524 27.5784C656.596 27.5784 781.26 79.2136 875.023 172.977C968.786 266.74 1020.42 391.404 1020.42 524C1020.42 656.596 968.786 781.26 875.023 875.023C781.26 968.786 656.596 1020.42 524 1020.42ZM524 46.9617C260.961 46.9617 46.9617 260.961 46.9617 524C46.9617 787.038 260.961 1001.04 524 1001.04C787.039 1001.04 1001.04 787.038 1001.04 524C1001.04 260.961 787.039 46.9617 524 46.9617Z" fill="white"/>
<path d="M524 1048C453.265 1048 384.635 1034.15 320.037 1006.82C257.638 980.428 201.603 942.643 153.48 894.52C105.357 846.397 67.5724 790.362 41.1836 727.963C13.8506 663.365 0 594.735 0 524C0 453.265 13.8506 384.635 41.1836 320.037C67.5724 257.638 105.357 201.603 153.48 153.48C201.603 105.357 257.638 67.5724 320.037 41.1836C384.635 13.8506 453.265 0 524 0C594.735 0 663.365 13.8506 727.963 41.1836C790.362 67.5724 846.397 105.357 894.52 153.48C942.643 201.603 980.428 257.638 1006.82 320.037C1034.14 384.644 1048 453.265 1048 524C1048 594.735 1034.15 663.365 1006.82 727.963C980.428 790.362 942.643 846.397 894.52 894.52C846.397 942.643 790.362 980.428 727.963 1006.82C663.365 1034.15 594.735 1048 524 1048ZM524 8.94105C240.001 8.94105 8.94105 239.992 8.94105 524C8.94105 807.999 239.992 1039.06 524 1039.06C807.999 1039.06 1039.06 808.008 1039.06 524C1039.06 240.001 807.999 8.94105 524 8.94105Z" fill="white"/>
<path d="M91.9974 500.123L99.8716 474.782L115.195 496.45L141.744 496.11L125.864 517.382L134.389 542.524L109.256 533.999L87.9753 549.87L88.3152 523.33L66.6471 508.006L91.9974 500.123Z" fill="white"/>
<path d="M919.087 495.043L937.582 476.009L941.444 502.275L965.265 513.983L941.482 525.765L937.705 552.041L919.143 533.064L892.99 537.586L905.311 514.077L892.915 490.606L919.087 495.043Z" fill="white"/>
<path d="M152.103 674.661L148.889 663.207C150.023 662.724 150.996 662.113 151.81 661.374C152.624 660.635 153.258 659.782 153.711 658.814C154.165 657.847 154.417 656.779 154.468 655.612C154.539 654.455 154.395 653.236 154.035 651.953C153.396 649.677 152.288 647.871 150.71 646.535C149.137 645.213 147.172 644.406 144.816 644.111C142.465 643.832 139.792 644.112 136.799 644.952C133.683 645.826 131.196 647.002 129.337 648.479C127.498 649.967 126.27 651.671 125.656 653.59C125.06 655.519 125.076 657.599 125.701 659.829C126.053 661.081 126.532 662.174 127.14 663.107C127.752 664.056 128.473 664.834 129.302 665.441C130.151 666.06 131.089 666.496 132.117 666.752C133.163 667.018 134.28 667.092 135.465 666.974L138.611 678.447C136.478 678.831 134.262 678.802 131.964 678.36C129.669 677.933 127.445 677.082 125.292 675.808C123.154 674.53 121.245 672.776 119.565 670.546C117.889 668.331 116.599 665.612 115.695 662.389C114.504 658.144 114.368 654.08 115.289 650.197C116.229 646.325 118.221 642.916 121.266 639.97C124.31 637.023 128.406 634.828 133.553 633.384C138.715 631.935 143.366 631.693 147.508 632.656C151.65 633.619 155.124 635.519 157.929 638.356C160.735 641.193 162.723 644.696 163.893 648.865C164.69 651.706 165.03 654.444 164.913 657.08C164.811 659.711 164.262 662.155 163.264 664.412C162.281 666.665 160.859 668.67 158.997 670.429C157.134 672.187 154.836 673.597 152.103 674.661Z" fill="white"/>
<path d="M125.851 692.45L170.829 673.707L178.571 692.287C179.975 695.655 180.578 698.815 180.382 701.766C180.206 704.726 179.269 707.342 177.569 709.614C175.884 711.88 173.504 713.653 170.43 714.935C167.311 716.234 164.377 716.658 161.628 716.205C158.894 715.746 156.434 714.503 154.249 712.475C152.078 710.441 150.279 707.711 148.851 704.285L143.955 692.536L152.52 688.966L156.574 698.696C157.258 700.335 158.041 701.616 158.923 702.537C159.826 703.467 160.835 704.034 161.952 704.239C163.083 704.438 164.344 704.248 165.735 703.668C167.126 703.088 168.156 702.324 168.826 701.375C169.51 700.419 169.848 699.291 169.838 697.989C169.843 696.681 169.507 695.214 168.829 693.589L166.596 688.23L130.381 703.321L125.851 692.45ZM156.959 709.206L141.07 728.973L136.128 717.114L152.109 697.567L156.959 709.206Z" fill="white"/>
<path d="M189.072 765.006C184.415 767.662 179.957 769.018 175.697 769.074C171.438 769.129 167.595 768.107 164.17 766.007C160.752 763.921 157.963 760.984 155.801 757.195C153.632 753.392 152.527 749.485 152.485 745.473C152.443 741.462 153.523 737.641 155.725 734.011C157.949 730.386 161.383 727.25 166.026 724.602C170.683 721.945 175.137 720.582 179.389 720.513C183.648 720.457 187.487 721.473 190.905 723.559C194.322 725.645 197.116 728.589 199.285 732.392C201.446 736.181 202.555 740.077 202.61 744.081C202.674 748.099 201.598 751.926 199.382 755.564C197.166 759.202 193.729 762.349 189.072 765.006ZM183.107 754.548C185.863 752.976 187.967 751.256 189.421 749.386C190.882 747.53 191.685 745.592 191.83 743.574C191.983 741.569 191.478 739.547 190.315 737.508C189.16 735.483 187.677 734.019 185.866 733.116C184.054 732.214 181.974 731.912 179.625 732.211C177.283 732.524 174.735 733.467 171.979 735.039C169.223 736.61 167.115 738.324 165.654 740.18C164.2 742.05 163.401 743.994 163.256 746.013C163.111 748.031 163.616 750.053 164.771 752.078C165.934 754.118 167.417 755.582 169.221 756.47C171.032 757.373 173.108 757.668 175.45 757.355C177.799 757.055 180.352 756.12 183.107 754.548Z" fill="white"/>
<path d="M216.982 786.064C218.285 784.892 218.948 783.515 218.973 781.932C219.02 780.352 218.355 778.641 216.978 776.799C216.066 775.579 215.147 774.681 214.222 774.106C213.297 773.53 212.403 773.248 211.54 773.259C210.689 773.261 209.904 773.522 209.183 774.041C208.579 774.452 208.15 774.951 207.896 775.538C207.65 776.137 207.542 776.812 207.569 777.564C207.618 778.319 207.782 779.148 208.06 780.049C208.338 780.95 208.714 781.917 209.188 782.949L210.933 786.872C211.957 789.117 212.671 791.237 213.073 793.233C213.486 795.242 213.584 797.109 213.369 798.834C213.163 800.573 212.626 802.172 211.758 803.633C210.889 805.094 209.679 806.415 208.126 807.596C205.651 809.426 203.071 810.385 200.384 810.472C197.696 810.56 195.019 809.799 192.35 808.19C189.691 806.593 187.146 804.168 184.715 800.916C182.274 797.651 180.636 794.44 179.8 791.282C178.964 788.124 179.041 785.126 180.029 782.288C181.016 779.451 183.021 776.873 186.041 774.556L192.794 783.589C191.593 784.605 190.796 785.725 190.404 786.949C190.012 788.173 189.989 789.467 190.336 790.832C190.693 792.209 191.388 793.591 192.423 794.975C193.373 796.246 194.352 797.197 195.36 797.83C196.377 798.476 197.371 798.812 198.342 798.839C199.312 798.866 200.196 798.591 200.993 798.015C201.721 797.452 202.179 796.753 202.367 795.919C202.568 795.076 202.513 794.048 202.201 792.835C201.911 791.626 201.399 790.187 200.666 788.517L198.57 783.726C196.819 779.768 196.081 776.171 196.356 772.935C196.643 769.69 198.272 766.968 201.241 764.768C203.646 762.951 206.245 762.018 209.04 761.968C211.835 761.919 214.605 762.67 217.35 764.223C220.095 765.775 222.573 768.031 224.786 770.991C227.046 774.015 228.493 777.023 229.126 780.016C229.781 783.012 229.648 785.814 228.727 788.423C227.806 791.033 226.142 793.257 223.734 795.096L216.982 786.064Z" fill="white"/>
<path d="M246.447 819.549C247.607 818.236 248.109 816.792 247.953 815.216C247.82 813.642 246.964 812.018 245.385 810.345C244.34 809.237 243.325 808.45 242.34 807.984C241.355 807.518 240.435 807.339 239.579 807.449C238.734 807.548 237.983 807.896 237.327 808.494C236.774 808.972 236.405 809.517 236.219 810.128C236.043 810.752 236.012 811.435 236.125 812.179C236.261 812.924 236.518 813.728 236.897 814.592C237.275 815.455 237.759 816.373 238.348 817.344L240.53 821.043C241.803 823.155 242.754 825.18 243.382 827.117C244.021 829.066 244.332 830.91 244.315 832.648C244.309 834.399 243.958 836.049 243.262 837.6C242.567 839.15 241.514 840.601 240.106 841.951C237.857 844.051 235.403 845.298 232.743 845.692C230.084 846.086 227.336 845.636 224.502 844.342C221.678 843.059 218.872 840.941 216.086 837.987C213.288 835.022 211.294 832.018 210.104 828.977C208.913 825.935 208.647 822.948 209.304 820.016C209.962 817.084 211.659 814.295 214.395 811.648L222.134 819.851C221.057 820.998 220.394 822.201 220.144 823.462C219.894 824.723 220.019 826.011 220.52 827.327C221.031 828.655 221.88 829.948 223.066 831.205C224.155 832.359 225.236 833.193 226.309 833.707C227.393 834.232 228.419 834.452 229.387 834.368C230.354 834.284 231.201 833.911 231.927 833.247C232.585 832.604 232.961 831.858 233.053 831.008C233.156 830.147 232.984 829.132 232.535 827.963C232.109 826.795 231.437 825.423 230.518 823.848L227.889 819.328C225.697 815.595 224.553 812.106 224.457 808.86C224.372 805.604 225.679 802.713 228.378 800.189C230.56 798.109 233.036 796.885 235.807 796.517C238.578 796.149 241.415 796.579 244.319 797.808C247.223 799.037 249.944 800.996 252.48 803.684C255.07 806.43 256.851 809.253 257.821 812.154C258.814 815.055 259.002 817.855 258.385 820.552C257.768 823.25 256.368 825.65 254.186 827.752L246.447 819.549Z" fill="white"/>
<path d="M237.427 858.461L269.034 821.376L294.349 842.951L288.145 850.231L271.793 836.295L265.311 843.9L280.051 856.463L273.832 863.76L259.092 851.198L246.39 866.101L237.427 858.461Z" fill="white"/>
<path d="M309.116 853.323L280.577 892.818L271.031 885.92L299.57 846.425L309.116 853.323Z" fill="white"/>
<path d="M309.735 865.879L314.643 857.67L349.993 878.802L345.086 887.012L332.404 879.43L312.309 913.045L302.343 907.087L322.438 873.473L309.735 865.879Z" fill="white"/>
<path d="M362.511 938.101L365.728 887.455L377.968 891.876L374.036 924.404L374.416 924.542L393.163 897.364L403.143 900.969L400.171 933.92L400.551 934.058L418.36 906.465L430.578 910.879L400.71 951.899L390.036 948.043L391.817 917.268L391.459 917.138L373.163 941.949L362.511 938.101Z" fill="white"/>
<path d="M471.957 942.637C470.933 947.9 469.053 952.164 466.317 955.429C463.581 958.694 460.3 960.94 456.474 962.167C452.663 963.397 448.617 963.595 444.336 962.762C440.038 961.926 436.356 960.215 433.287 957.631C430.219 955.046 428.027 951.735 426.712 947.698C425.416 943.648 425.278 939 426.299 933.753C427.323 928.49 429.195 924.225 431.916 920.957C434.652 917.692 437.925 915.444 441.735 914.214C445.546 912.985 449.6 912.788 453.897 913.624C458.179 914.457 461.855 916.158 464.926 918.727C468.013 921.299 470.213 924.612 471.525 928.664C472.837 932.717 472.981 937.375 471.957 942.637ZM460.14 940.338C460.746 937.224 460.814 934.506 460.344 932.185C459.891 929.867 458.946 927.994 457.511 926.568C456.091 925.144 454.229 924.208 451.925 923.76C449.636 923.314 447.559 923.484 445.693 924.268C443.828 925.052 442.242 926.433 440.937 928.408C439.647 930.387 438.699 932.934 438.093 936.048C437.487 939.162 437.411 941.878 437.865 944.196C438.334 946.517 439.286 948.391 440.722 949.818C442.157 951.245 444.019 952.181 446.308 952.626C448.612 953.074 450.689 952.905 452.539 952.118C454.405 951.333 455.982 949.952 457.272 947.973C458.578 945.997 459.534 943.452 460.14 940.338Z" fill="white"/>
<path d="M477.507 967.448L480.849 918.836L500.93 920.216C504.569 920.466 507.665 921.339 510.218 922.834C512.787 924.315 514.708 926.323 515.981 928.859C517.254 931.379 517.777 934.3 517.548 937.623C517.317 940.994 516.384 943.808 514.75 946.064C513.117 948.305 510.906 949.95 508.115 950.998C505.325 952.031 502.079 952.419 498.376 952.165L485.677 951.292L486.313 942.035L496.828 942.758C498.601 942.879 500.096 942.752 501.314 942.374C502.55 941.982 503.509 941.333 504.191 940.426C504.875 939.503 505.268 938.29 505.371 936.786C505.475 935.283 505.252 934.02 504.702 932.996C504.153 931.957 503.294 931.15 502.125 930.577C500.958 929.988 499.495 929.633 497.739 929.513L491.947 929.114L489.256 968.256L477.507 967.448ZM506.402 947.112L516.981 970.162L504.163 969.281L493.822 946.247L506.402 947.112Z" fill="white"/>
<path d="M526.016 970.071L523.62 921.402L535.383 920.823L536.396 941.403L537.037 941.371L552.112 920L565.967 919.318L549.783 941.887L568.672 967.971L554.603 968.663L541.542 950.13L537.129 956.303L537.779 969.492L526.016 970.071Z" fill="white"/>
<path d="M618.45 934.778C619.39 940.056 619.171 944.711 617.794 948.742C616.418 952.774 614.165 956.05 611.038 958.573C607.926 961.092 604.222 962.734 599.928 963.499C595.618 964.266 591.566 963.996 587.773 962.69C583.98 961.383 580.743 959.084 578.063 955.791C575.395 952.48 573.593 948.193 572.656 942.93C571.716 937.652 571.927 932.998 573.288 928.97C574.665 924.939 576.909 921.663 580.021 919.144C583.133 916.624 586.845 914.981 591.155 914.214C595.449 913.449 599.491 913.712 603.282 915.003C607.088 916.291 610.332 918.59 613.016 921.898C615.699 925.206 617.511 929.5 618.45 934.778ZM606.598 936.888C606.042 933.765 605.127 931.205 603.853 929.208C602.595 927.209 601.039 925.802 599.187 924.988C597.35 924.171 595.276 923.968 592.964 924.38C590.669 924.789 588.792 925.695 587.334 927.098C585.876 928.501 584.894 930.36 584.387 932.673C583.896 934.984 583.929 937.701 584.485 940.824C585.041 943.948 585.948 946.509 587.206 948.508C588.48 950.505 590.043 951.91 591.896 952.724C593.749 953.538 595.823 953.741 598.118 953.332C600.429 952.921 602.306 952.015 603.749 950.614C605.207 949.211 606.181 947.354 606.672 945.043C607.178 942.73 607.154 940.011 606.598 936.888Z" fill="white"/>
<path d="M646.162 900.67L657.376 897.149L666.793 927.135C667.881 930.6 668.005 933.878 667.163 936.969C666.317 940.045 664.639 942.749 662.13 945.084C659.616 947.402 656.407 949.175 652.503 950.401C648.553 951.642 644.884 952.029 641.496 951.563C638.103 951.083 635.188 949.82 632.75 947.776C630.308 945.717 628.543 942.954 627.454 939.489L618.038 909.503L629.274 905.974L638.384 934.984C638.888 936.588 639.685 937.909 640.776 938.946C641.881 939.979 643.182 940.651 644.676 940.964C646.171 941.276 647.758 941.168 649.438 940.64C651.117 940.113 652.474 939.296 653.506 938.19C654.554 937.08 655.236 935.785 655.553 934.306C655.87 932.826 655.776 931.285 655.273 929.68L646.162 900.67Z" fill="white"/>
<path d="M664.752 904.415L660.814 895.699L698.345 878.74L702.284 887.456L688.819 893.54L704.946 929.228L694.365 934.009L678.239 898.321L664.752 904.415Z" fill="white"/>
<path d="M720.945 876.944L715.649 868.98L749.943 846.174L755.239 854.138L742.936 862.32L764.622 894.93L754.954 901.36L733.268 868.749L720.945 876.944Z" fill="white"/>
<path d="M784.718 880.601L753.238 843.407L768.603 830.404C771.387 828.047 774.216 826.515 777.088 825.809C779.963 825.08 782.74 825.182 785.42 826.114C788.089 827.034 790.5 828.765 792.652 831.307C794.835 833.886 796.126 836.554 796.527 839.311C796.918 842.056 796.478 844.777 795.206 847.473C793.925 850.158 791.868 852.699 789.035 855.097L779.319 863.321L773.324 856.238L781.369 849.428C782.725 848.281 783.709 847.147 784.32 846.027C784.932 844.885 785.167 843.751 785.025 842.625C784.872 841.487 784.309 840.343 783.335 839.193C782.362 838.042 781.321 837.292 780.214 836.941C779.096 836.578 777.918 836.598 776.68 837.001C775.432 837.393 774.136 838.157 772.792 839.295L768.361 843.045L793.708 872.993L784.718 880.601ZM791.27 845.88L814.92 855.039L805.113 863.34L781.645 854.026L791.27 845.88Z" fill="white"/>
<path d="M828.592 840.961L820.001 850.257L795.374 805.111L806.016 793.596L852.96 814.594L844.369 823.889L809.833 807.555L809.574 807.834L828.592 840.961ZM813.362 829.186L831.319 809.755L837.889 815.827L819.932 835.258L813.362 829.186Z" fill="white"/>
<path d="M858.547 753.405L851.667 763.11C850.579 762.533 849.491 762.16 848.405 761.993C847.318 761.825 846.256 761.869 845.219 762.126C844.182 762.382 843.193 762.857 842.253 763.552C841.31 764.225 840.453 765.105 839.682 766.191C838.315 768.119 837.608 770.117 837.562 772.184C837.525 774.238 838.133 776.274 839.387 778.29C840.65 780.294 842.549 782.195 845.085 783.993C847.725 785.864 850.204 787.058 852.521 787.573C854.835 788.067 856.931 787.949 858.81 787.22C860.684 786.468 862.291 785.148 863.63 783.259C864.383 782.197 864.93 781.137 865.273 780.078C865.625 779.005 865.777 777.955 865.727 776.928C865.673 775.879 865.423 774.875 864.975 773.916C864.524 772.935 863.879 772.021 863.04 771.174L869.979 761.511C871.62 762.926 872.991 764.667 874.094 766.732C875.206 768.784 875.944 771.047 876.308 773.523C876.66 775.988 876.497 778.576 875.821 781.285C875.154 783.982 873.852 786.695 871.916 789.425C869.366 793.022 866.292 795.684 862.695 797.412C859.095 799.117 855.191 799.714 850.986 799.201C846.78 798.688 842.496 796.886 838.136 793.795C833.762 790.694 830.647 787.231 828.79 783.406C826.932 779.58 826.223 775.685 826.663 771.719C827.103 767.753 828.575 764.004 831.08 760.471C832.786 758.065 834.7 756.078 836.823 754.51C838.932 752.934 841.178 751.823 843.56 751.179C845.929 750.525 848.382 750.369 850.921 750.71C853.459 751.052 856.001 751.95 858.547 753.405Z" fill="white"/>
<path d="M888.965 762.613L846.019 739.593L851.583 729.212L869.743 738.947L870.046 738.381L859.496 714.45L866.05 702.224L877.055 727.722L909.142 724.972L902.488 737.386L879.874 739.032L882.891 745.995L894.529 752.233L888.965 762.613Z" fill="white"/>
<path d="M912.406 716.915L867.113 698.947L879.641 667.365L888.532 670.892L880.346 691.527L889.635 695.211L897.18 676.192L906.093 679.727L898.547 698.747L907.858 702.441L916.044 681.807L924.935 685.333L912.406 716.915Z" fill="white"/>
<path d="M928.625 674.229L881.62 661.387L886.925 641.97C887.887 638.451 889.351 635.587 891.319 633.379C893.276 631.151 895.623 629.663 898.36 628.914C901.081 628.161 904.049 628.224 907.262 629.102C910.521 629.992 913.096 631.46 914.987 633.506C916.863 635.548 918.04 638.04 918.519 640.982C918.982 643.921 918.725 647.18 917.747 650.761L914.392 663.04L905.441 660.594L908.219 650.427C908.687 648.713 908.856 647.222 908.726 645.953C908.584 644.665 908.136 643.597 907.381 642.749C906.611 641.897 905.499 641.273 904.045 640.876C902.592 640.479 901.309 640.449 900.197 640.786C899.07 641.12 898.111 641.803 897.319 642.836C896.511 643.866 895.876 645.229 895.412 646.928L893.882 652.528L931.729 662.868L928.625 674.229ZM914.372 641.897L939.053 636.061L935.667 648.454L911.049 654.061L914.372 641.897Z" fill="white"/>
<path d="M204.927 337.932L128.073 309.659L142.26 290.576L187.447 310.79L187.813 310.298L156.63 271.247L167.796 256.228L214.297 274.933L214.663 274.44L182.167 236.899L196.354 217.817L245.566 283.27L233.393 299.644L190.22 284.177L189.853 284.67L217.101 321.558L204.927 337.932Z" fill="white"/>
<path d="M297.803 187.573C303.254 194.411 306.523 201.238 307.61 208.056C308.681 214.854 307.921 221.264 305.332 227.285C302.726 233.286 298.645 238.502 293.087 242.934C287.489 247.396 281.467 250.22 275.02 251.403C268.577 252.55 262.162 251.845 255.773 249.286C249.388 246.692 243.486 241.996 238.067 235.199C232.616 228.362 229.345 221.552 228.254 214.77C227.167 207.952 227.917 201.551 230.502 195.565C233.092 189.544 237.186 184.302 242.783 179.839C248.341 175.408 254.343 172.601 260.79 171.418C267.221 170.214 273.639 170.902 280.043 173.48C286.432 176.038 292.352 180.736 297.803 187.573ZM280.65 201.249C277.717 197.57 274.757 194.862 271.769 193.124C268.785 191.35 265.825 190.571 262.89 190.785C259.959 190.964 257.114 192.153 254.355 194.353C251.596 196.553 249.793 199.069 248.946 201.903C248.103 204.701 248.203 207.76 249.248 211.08C250.297 214.364 252.287 217.845 255.22 221.523C258.153 225.202 261.111 227.928 264.095 229.702C267.083 231.44 270.043 232.22 272.974 232.041C275.909 231.826 278.756 230.619 281.515 228.419C284.274 226.22 286.075 223.721 286.918 220.923C287.766 218.09 287.665 215.031 286.616 211.747C285.572 208.427 283.583 204.927 280.65 201.249Z" fill="white"/>
<path d="M355.012 202.195L327.952 215.653L292.974 145.326L319.759 132.004C326.993 128.406 333.943 126.706 340.609 126.903C347.286 127.066 353.365 129.068 358.845 132.91C364.337 136.718 368.905 142.285 372.549 149.61C376.192 156.936 377.893 163.943 377.65 170.632C377.396 177.298 375.348 183.342 371.506 188.766C367.652 194.166 362.154 198.642 355.012 202.195ZM338.984 189.949L346.264 186.328C349.743 184.597 352.429 182.562 354.321 180.222C356.235 177.871 357.15 175.002 357.066 171.618C357.004 168.221 355.755 164.074 353.319 159.175C350.882 154.276 348.317 150.783 345.623 148.696C342.951 146.598 340.066 145.62 336.967 145.762C333.891 145.893 330.521 146.869 326.859 148.691L320.128 152.038L338.984 189.949Z" fill="white"/>
<path d="M406.242 115.5L402.856 98.6545L469.785 85.2045L473.171 102.05L450.009 106.704L462.098 166.865L441.493 171.006L429.403 110.845L406.242 115.5Z" fill="white"/>
<path d="M491.391 162.182L490.73 83.6395L524.632 83.3543C530.462 83.3052 535.571 84.3234 539.961 86.4087C544.351 88.494 547.777 91.5206 550.239 95.4887C552.702 99.4568 553.957 104.228 554.003 109.801C554.051 115.426 552.838 120.179 550.365 124.061C547.917 127.943 544.452 130.887 539.969 132.893C535.511 134.9 530.291 135.928 524.308 135.978L504.059 136.149L503.919 119.581L519.873 119.447C522.379 119.426 524.511 119.101 526.27 118.472C528.054 117.818 529.414 116.797 530.348 115.408C531.308 114.019 531.779 112.213 531.76 109.988C531.741 107.739 531.24 105.915 530.256 104.517C529.298 103.093 527.922 102.056 526.126 101.406C524.356 100.731 522.219 100.404 519.713 100.425L512.196 100.488L512.714 162.003L491.391 162.182ZM537.109 125.745L557.048 161.63L533.884 161.825L514.405 125.936L537.109 125.745Z" fill="white"/>
<path d="M581.521 166.067L558.944 161.615L599.578 89.5701L628.175 95.2097L638.413 177.287L615.837 172.835L609.992 113.671L609.39 113.552L581.521 166.067ZM583.302 134.833L625.746 143.204L622.659 158.857L580.215 150.486L583.302 134.833Z" fill="white"/>
<path d="M728.644 163.582L708.815 154.939C709.39 153.237 709.663 151.585 709.636 149.983C709.633 148.392 709.313 146.886 708.677 145.465C708.075 144.031 707.148 142.735 705.896 141.575C704.655 140.393 703.096 139.393 701.221 138.575C697.94 137.145 694.815 136.731 691.847 137.334C688.902 137.947 686.195 139.487 683.725 141.952C681.279 144.428 679.147 147.752 677.329 151.924C675.408 156.331 674.385 160.278 674.259 163.765C674.167 167.24 674.919 170.217 676.516 172.698C678.122 175.155 680.507 177.074 683.672 178.453C685.476 179.24 687.191 179.722 688.814 179.9C690.449 180.054 691.982 179.928 693.415 179.52C694.847 179.113 696.158 178.443 697.345 177.51C698.566 176.564 699.631 175.369 700.54 173.924L720.307 182.708C718.745 185.652 716.536 188.385 713.68 190.906C710.834 193.403 707.47 195.395 703.586 196.882C699.736 198.355 695.467 199.032 690.777 198.913C686.088 198.793 681.106 197.584 675.832 195.285C669.223 192.404 663.911 188.401 659.897 183.277C655.907 178.163 653.588 172.187 652.942 165.351C652.319 158.525 653.745 151.128 657.219 143.159C660.713 135.143 665.202 129.067 670.686 124.931C676.181 120.771 682.167 118.43 688.643 117.906C695.129 117.358 701.607 118.494 708.076 121.314C712.623 123.296 716.536 125.741 719.815 128.648C723.094 131.556 725.654 134.833 727.494 138.481C729.346 142.104 730.394 146.034 730.64 150.269C730.886 154.504 730.22 158.942 728.644 163.582Z" fill="white"/>
<path d="M714.881 212.718L760.377 148.691L777.759 161.043L759.365 186.929L760.241 187.551L797.893 175.349L818.151 189.744L776.257 202.884L773.155 254.127L752.397 239.376L755.077 205.147L743.993 208.563L732.263 225.07L714.881 212.718Z" fill="white"/>
<path d="M775.115 257.385L831.749 202.961L870.972 243.777L858.584 255.682L834.135 230.241L824.402 239.596L846.83 262.935L834.442 274.84L812.013 251.501L802.279 260.855L826.621 286.185L814.233 298.091L775.115 257.385Z" fill="white"/>
<path d="M820.024 305.333L885.551 262.025L904.245 290.309C907.459 295.172 909.387 300.013 910.027 304.83C910.667 309.648 909.993 314.169 908.005 318.395C906.017 322.621 902.698 326.27 898.048 329.344C893.355 332.445 888.707 334.015 884.105 334.053C879.517 334.113 875.161 332.809 871.037 330.14C866.927 327.493 863.223 323.673 859.924 318.682L848.759 301.789L862.581 292.653L871.378 305.963C872.759 308.054 874.193 309.666 875.677 310.799C877.197 311.94 878.794 312.524 880.468 312.552C882.155 312.601 883.927 312.013 885.783 310.786C887.66 309.546 888.917 308.132 889.554 306.546C890.227 304.968 890.348 303.248 889.915 301.389C889.518 299.536 888.629 297.565 887.248 295.475L883.103 289.203L831.782 323.123L820.024 305.333ZM875.476 323.85L856.228 360.11L843.455 340.784L862.957 304.909L875.476 323.85Z" fill="white"/>
</svg>
