<?xml version="1.0" standalone="no"?>
<!DOCTYPE svg PUBLIC "-//W3C//DTD SVG 20010904//EN"
 "http://www.w3.org/TR/2001/REC-SVG-20010904/DTD/svg10.dtd">
<svg version="1.0" xmlns="http://www.w3.org/2000/svg"
 width="700.000000pt" height="700.000000pt" viewBox="0 0 700.000000 700.000000"
 preserveAspectRatio="xMidYMid meet">
<metadata>
Created by potrace 1.14, written by Peter Selinger 2001-2017
</metadata>
<g transform="translate(0.000000,700.000000) scale(0.100000,-0.100000)"
fill="#000000" stroke="none">
<path d="M5800 6221 c-71 -23 -140 -82 -176 -151 -28 -53 -26 -191 3 -246 66
-124 216 -183 349 -137 102 35 184 151 184 263 0 99 -66 207 -154 252 -44 23
-161 34 -206 19z"/>
<path d="M5410 6140 c-11 -11 -20 -33 -20 -50 0 -17 9 -39 20 -50 11 -11 33
-20 50 -20 17 0 39 9 50 20 11 11 20 33 20 50 0 17 -9 39 -20 50 -11 11 -33
20 -50 20 -17 0 -39 -9 -50 -20z"/>
<path d="M3345 6079 c-330 -30 -680 -132 -965 -281 -1010 -526 -1562 -1651
-1354 -2763 13 -71 26 -139 30 -151 4 -17 -1 -22 -37 -33 -58 -18 -140 -101
-162 -165 -37 -108 -13 -211 67 -292 79 -79 186 -104 286 -69 24 8 44 14 45
13 1 -2 25 -46 55 -98 336 -600 900 -1045 1556 -1230 721 -203 1496 -85 2119
324 889 584 1330 1638 1120 2681 -184 913 -854 1663 -1741 1948 -134 43 -314
84 -454 103 -135 18 -436 25 -565 13z m1488 -1014 c156 -41 261 -145 302 -300
22 -88 23 -2441 0 -2528 -41 -156 -145 -261 -300 -302 -52 -13 -214 -15 -1265
-15 -1051 0 -1213 2 -1265 15 -155 41 -259 146 -300 302 -23 87 -22 2440 0
2528 40 153 145 258 298 300 80 21 2447 22 2530 0z m887 -395 c43 -43 11 -120
-50 -120 -38 0 -70 32 -70 70 0 38 32 70 70 70 17 0 39 -9 50 -20z m-4223
-1321 c38 -14 83 -57 99 -96 49 -113 -38 -243 -161 -243 -94 0 -175 80 -175
174 0 121 124 208 237 165z"/>
<path d="M2406 4875 c-104 -42 -177 -117 -215 -220 -19 -50 -21 -78 -21 -255
0 -184 1 -200 19 -209 13 -7 23 -7 34 2 13 10 16 46 19 207 4 171 7 201 25
241 30 66 86 124 151 156 l57 28 540 5 540 5 0 30 0 30 -545 2 -545 3 -59 -25z"/>
<path d="M3703 4710 c-72 -15 -131 -47 -186 -99 -128 -121 -159 -308 -86 -526
44 -132 101 -227 212 -355 130 -149 403 -340 487 -340 76 0 302 151 448 298
118 120 203 255 251 397 74 222 42 407 -91 530 -79 73 -146 98 -263 98 -103 0
-173 -22 -252 -79 -27 -19 -58 -41 -70 -50 -21 -15 -25 -15 -45 0 -13 9 -44
31 -71 50 -91 66 -231 98 -334 76z"/>
<path d="M2186 3927 c-15 -11 -16 -75 -14 -782 l3 -770 27 -57 c37 -79 98
-142 177 -181 l66 -32 281 -3 c270 -3 283 -2 288 16 16 49 13 50 -272 54
l-267 3 -57 28 c-65 32 -121 89 -152 156 -21 46 -21 54 -24 803 -3 721 -4 758
-21 767 -13 7 -23 6 -35 -2z"/>
<path d="M4912 3627 c-8 -9 -12 -206 -14 -617 -3 -594 -3 -606 -24 -651 -31
-67 -87 -124 -152 -156 l-57 -28 -740 -5 -740 -5 0 -30 0 -30 755 0 755 0 66
32 c79 39 140 102 177 181 l27 57 3 619 c2 453 -1 622 -9 632 -14 18 -33 18
-47 1z"/>
<path d="M6086 5441 c-43 -29 -66 -70 -66 -121 0 -51 23 -92 66 -121 61 -40
152 -18 195 47 23 35 25 104 4 144 -33 64 -138 91 -199 51z"/>
<path d="M906 5091 c-43 -29 -66 -70 -66 -121 0 -80 60 -140 140 -140 106 0
175 114 125 210 -33 64 -138 91 -199 51z"/>
<path d="M5672 1800 c-18 -11 -41 -34 -52 -52 -71 -117 71 -259 188 -188 18
11 41 34 52 52 71 117 -71 259 -188 188z"/>
<path d="M1746 1031 c-43 -29 -66 -70 -66 -121 0 -80 60 -140 140 -140 106 0
175 114 125 210 -33 64 -138 91 -199 51z"/>
</g>
</svg>
