<?xml version="1.0" standalone="no"?>
<!DOCTYPE svg PUBLIC "-//W3C//DTD SVG 20010904//EN"
 "http://www.w3.org/TR/2001/REC-SVG-20010904/DTD/svg10.dtd">
<svg version="1.0" xmlns="http://www.w3.org/2000/svg"
 width="1024.000000pt" height="1024.000000pt" viewBox="0 0 1024.000000 1024.000000"
 preserveAspectRatio="xMidYMid meet">
<metadata>
Created by potrace 1.14, written by Peter Selinger 2001-2017
</metadata>
<g transform="translate(0.000000,1024.000000) scale(0.100000,-0.100000)"
fill="#000000" stroke="none">
<path d="M5033 9206 c3 -13 -37 -16 -45 -3 -5 8 -8 6 -8 -7 0 -15 -3 -16 -14
-7 -11 9 -16 9 -22 0 -5 -8 -3 -10 7 -4 11 6 11 5 3 -5 -8 -7 -32 -11 -67 -8
-39 2 -53 0 -46 -8 6 -7 -3 -10 -27 -9 -19 0 -37 -2 -39 -6 -3 -3 -16 -4 -31
-1 -16 3 -29 -1 -35 -9 -5 -8 -9 -9 -9 -3 0 14 -40 11 -49 -5 -6 -9 -15 -9
-34 -2 -20 8 -27 7 -27 -2 0 -8 -4 -7 -10 3 -5 8 -10 11 -10 5 0 -6 -32 -10
-76 -10 -41 1 -78 -3 -81 -9 -4 -5 -1 -6 7 -1 8 5 11 4 6 -3 -4 -6 -13 -9 -21
-6 -8 4 -12 11 -8 17 3 6 1 7 -5 3 -7 -4 -12 -15 -12 -24 0 -10 -3 -13 -8 -7
-4 6 -14 9 -22 9 -8 -1 -21 -2 -28 -3 -7 0 -11 -5 -8 -9 3 -5 -1 -9 -9 -9 -8
0 -11 5 -8 11 4 6 -3 3 -14 -7 -11 -9 -22 -15 -25 -12 -7 8 -78 13 -78 6 0 -3
-14 -7 -32 -8 -17 -1 -34 -7 -38 -13 -4 -6 -15 -8 -26 -4 -18 6 -18 6 1 -9
l20 -16 -20 3 c-11 2 -26 -4 -33 -13 -8 -9 -11 -10 -7 -3 3 6 1 12 -4 12 -6 0
-11 -10 -12 -22 0 -13 -3 -18 -5 -11 -6 13 -34 6 -34 -9 0 -5 5 -6 12 -2 7 4
8 3 4 -5 -5 -8 -12 -9 -19 -2 -8 6 -21 4 -37 -6 -14 -8 -17 -12 -7 -9 11 3 15
2 12 -4 -3 -6 -15 -10 -25 -10 -10 0 -22 -5 -26 -12 -5 -7 -3 -8 6 -3 9 5 11
4 6 -4 -6 -9 -11 -9 -21 -1 -14 12 -40 -11 -27 -25 4 -5 -2 -5 -12 -1 -16 5
-17 4 -6 -9 11 -13 10 -14 -5 -9 -13 5 -16 4 -11 -4 5 -8 2 -10 -8 -6 -11 4
-16 0 -16 -12 0 -16 -2 -17 -10 -4 -8 12 -10 10 -10 -9 0 -20 -2 -22 -16 -11
-12 11 -15 11 -12 -1 2 -8 -4 -13 -13 -13 -12 1 -15 -5 -13 -20 2 -11 2 -16
-2 -9 -4 10 -8 10 -19 0 -7 -7 -10 -16 -7 -22 3 -5 -3 -3 -13 5 -13 10 -16 11
-11 2 11 -18 -21 -51 -44 -47 -13 3 -17 -1 -13 -11 3 -7 10 -11 16 -7 6 3 7 1
3 -6 -6 -9 -11 -9 -22 0 -12 10 -13 9 -8 -6 5 -13 4 -16 -4 -11 -7 4 -12 2
-12 -4 0 -6 -5 -8 -12 -4 -8 5 -7 0 2 -11 9 -11 10 -16 3 -11 -8 4 -13 2 -13
-6 0 -9 -3 -9 -10 2 -8 13 -11 13 -22 1 -10 -10 -10 -12 0 -7 6 4 12 2 12 -3
0 -6 -5 -11 -11 -11 -5 0 -7 -4 -4 -10 3 -6 -1 -7 -10 -4 -10 4 -15 2 -13 -7
2 -8 -3 -13 -10 -11 -7 1 -12 -5 -10 -15 2 -10 -3 -18 -10 -18 -16 0 -33 -26
-24 -40 3 -5 -3 -3 -13 5 -11 9 -16 10 -11 3 4 -8 2 -13 -8 -13 -9 0 -13 -7
-11 -19 2 -14 -1 -18 -11 -14 -7 3 -11 10 -7 16 3 6 1 7 -6 3 -9 -6 -9 -11 0
-22 10 -12 9 -13 -5 -8 -13 5 -15 2 -9 -12 6 -17 5 -17 -10 -5 -15 12 -17 12
-11 -3 3 -9 1 -16 -5 -16 -6 0 -11 -5 -11 -11 0 -5 5 -7 12 -3 7 4 8 3 4 -5
-4 -6 -12 -9 -17 -6 -5 4 -9 1 -9 -5 0 -6 -3 -9 -7 -7 -11 7 -33 -19 -25 -29
4 -4 -1 -4 -10 -1 -11 4 -17 2 -15 -6 1 -7 -4 -11 -12 -9 -12 3 -12 1 0 -14
13 -16 12 -16 -7 -6 -19 10 -21 9 -17 -12 3 -13 -2 -28 -13 -37 -15 -12 -16
-12 -9 0 5 10 4 12 -3 7 -7 -4 -12 -13 -12 -21 0 -7 -7 -16 -16 -19 -10 -4
-14 -12 -10 -23 4 -10 4 -14 0 -11 -7 8 -34 -16 -34 -31 0 -5 -5 -13 -12 -17
-7 -5 -8 -3 -3 6 5 9 4 11 -4 6 -9 -6 -9 -11 -1 -21 12 -15 -3 -31 -19 -20 -6
3 -8 -4 -6 -15 2 -13 -2 -23 -11 -27 -10 -3 -14 -13 -11 -25 4 -14 1 -18 -8
-14 -9 3 -12 -2 -10 -15 3 -15 0 -19 -11 -15 -12 5 -13 2 -3 -17 11 -20 11
-21 -5 -8 -14 12 -16 12 -10 -4 5 -12 4 -16 -4 -11 -7 4 -10 -1 -7 -15 3 -13
0 -19 -8 -16 -15 6 -39 -18 -29 -29 4 -4 -2 -4 -12 0 -16 6 -17 4 -6 -9 7 -9
9 -15 4 -14 -22 4 -35 -2 -28 -13 5 -8 2 -9 -11 -4 -15 5 -16 4 -5 -9 11 -13
10 -14 -5 -9 -11 5 -16 4 -12 -3 4 -5 -5 -15 -19 -22 -16 -7 -24 -17 -21 -26
4 -9 0 -12 -14 -10 -11 2 -17 0 -14 -5 3 -5 -3 -15 -14 -21 -10 -7 -17 -18
-15 -24 3 -7 -3 -18 -13 -26 -17 -13 -17 -13 -3 6 15 20 14 20 -8 1 -23 -20
-30 -32 -12 -21 6 3 10 1 10 -4 0 -6 -4 -11 -8 -11 -10 0 -38 -70 -34 -83 1
-5 -3 -5 -9 -1 -9 5 -10 2 -6 -9 3 -10 2 -17 -4 -17 -6 0 -7 -5 -3 -12 5 -7 2
-9 -8 -6 -11 5 -14 0 -12 -18 1 -13 -2 -22 -7 -18 -5 3 -9 0 -9 -7 0 -6 -8
-18 -17 -26 -10 -8 -12 -12 -5 -8 6 3 12 1 12 -4 0 -10 -14 -15 -33 -12 -5 1
-6 -3 -2 -9 3 -6 12 -8 18 -4 7 3 4 -1 -6 -9 -12 -10 -15 -17 -7 -22 16 -10
-9 -38 -27 -31 -9 4 -11 1 -7 -6 4 -6 -1 -17 -10 -24 -11 -8 -13 -14 -7 -19 6
-3 11 -1 11 4 0 6 6 11 13 11 6 -1 2 -9 -10 -19 -12 -10 -19 -21 -16 -25 4 -3
2 -6 -4 -6 -6 0 -14 -7 -17 -16 -6 -15 -4 -15 10 -3 16 13 16 12 4 -8 -8 -12
-18 -20 -22 -17 -4 3 -5 -1 -2 -9 3 -8 0 -18 -5 -22 -6 -3 -9 -11 -6 -16 4 -5
1 -9 -5 -9 -6 0 -9 -4 -5 -9 3 -6 -4 -26 -15 -46 -11 -20 -19 -44 -18 -53 2
-12 -3 -16 -17 -14 -13 2 -16 0 -8 -5 10 -7 9 -15 -2 -37 -8 -16 -15 -35 -15
-42 0 -8 -6 -14 -12 -14 -9 0 -8 -4 2 -10 10 -6 11 -10 3 -10 -7 0 -13 -7 -13
-15 0 -8 -4 -15 -10 -15 -5 0 -12 -16 -16 -35 -3 -19 -10 -35 -14 -35 -5 0
-14 -16 -21 -35 -7 -19 -19 -35 -27 -35 -7 0 -11 -4 -7 -10 3 -5 1 -17 -4 -27
-5 -10 -12 -26 -15 -36 -4 -11 -11 -15 -18 -11 -10 5 -10 4 -1 -6 10 -11 10
-17 -3 -31 -12 -13 -12 -19 -3 -25 8 -5 10 -3 4 6 -6 9 -4 11 5 5 10 -6 9 -11
-5 -22 -11 -7 -15 -13 -9 -13 5 0 1 -5 -8 -10 -13 -8 -15 -17 -8 -40 7 -25 6
-30 -8 -31 -11 0 -13 -2 -4 -6 10 -4 10 -8 1 -19 -6 -8 -8 -14 -5 -14 4 0 0
-8 -9 -17 -16 -16 -16 -18 1 -31 18 -13 18 -13 0 -10 -13 2 -25 -8 -38 -30
-10 -18 -13 -30 -7 -26 8 5 9 3 5 -5 -5 -7 -14 -10 -22 -7 -9 3 -11 0 -7 -11
5 -13 2 -15 -12 -10 -16 7 -16 5 -4 -10 9 -11 10 -14 1 -9 -7 4 -12 1 -12 -8
0 -9 -5 -16 -11 -16 -5 0 -7 5 -3 12 4 7 3 8 -4 4 -7 -4 -12 -16 -12 -27 0
-11 -4 -17 -10 -14 -5 3 -10 1 -10 -5 0 -6 -5 -8 -10 -5 -6 4 -10 3 -9 -2 1
-4 1 -17 0 -28 -1 -15 -3 -17 -10 -7 -6 11 -13 8 -28 -12 -11 -14 -23 -22 -27
-19 -5 6 -10 -20 -7 -39 0 -4 -5 -5 -13 -2 -9 3 -13 -2 -12 -18 1 -17 -4 -22
-17 -20 -15 3 -23 -19 -18 -50 0 -5 -4 -8 -11 -8 -9 0 -9 -3 0 -12 10 -10 8
-16 -10 -31 -19 -16 -20 -18 -4 -13 17 6 17 4 5 -10 -8 -9 -12 -28 -11 -42 3
-18 0 -22 -10 -16 -11 6 -11 5 0 -8 10 -12 10 -18 -2 -27 -8 -7 -12 -20 -9
-28 5 -11 3 -14 -6 -8 -10 6 -11 3 -2 -13 13 -25 14 -35 2 -28 -5 4 -8 -1 -7
-10 1 -8 9 -20 17 -25 10 -6 11 -9 1 -9 -12 0 -13 -29 -2 -40 19 -19 50 -71
39 -66 -8 4 -3 -1 10 -12 13 -10 21 -24 17 -30 -3 -5 1 -12 9 -16 8 -3 15 -10
15 -17 0 -6 8 -18 18 -27 10 -10 12 -13 5 -8 -10 6 -12 4 -7 -8 3 -9 12 -16
20 -16 8 0 11 -6 8 -15 -4 -8 -1 -21 5 -29 6 -7 8 -16 4 -20 -10 -10 -12 -56
-2 -50 4 2 10 0 14 -6 3 -5 1 -10 -6 -10 -7 0 -4 -7 7 -16 10 -8 13 -12 6 -9
-18 9 -13 -83 6 -101 11 -12 11 -14 -5 -15 -16 0 -16 -1 2 -9 11 -5 16 -9 11
-9 -5 -1 -3 -8 4 -16 9 -11 9 -15 1 -15 -7 0 -9 -5 -6 -10 4 -6 10 -8 14 -6 4
3 7 -9 6 -27 0 -18 4 -35 9 -39 5 -3 10 -17 10 -30 1 -12 4 -27 7 -33 4 -5 5
-20 4 -32 -1 -12 2 -20 7 -17 4 3 8 -2 8 -10 0 -9 6 -16 13 -16 8 0 7 -4 -3
-10 -13 -8 -8 -14 11 -12 3 1 3 -12 1 -29 -3 -20 0 -29 9 -29 11 0 11 -2 -1
-10 -11 -7 -11 -10 -2 -10 7 0 10 -4 7 -10 -3 -6 -1 -10 4 -10 6 0 11 -5 11
-11 0 -5 -5 -7 -12 -3 -8 5 -8 3 -2 -7 5 -8 9 -23 9 -34 0 -11 5 -26 9 -34 7
-10 5 -12 -5 -6 -8 5 -7 0 4 -12 9 -11 17 -24 17 -29 0 -5 -5 -2 -10 6 -6 9
-10 10 -10 3 0 -6 5 -15 10 -18 6 -3 10 -15 10 -26 0 -14 -4 -18 -13 -13 -9 6
-9 5 0 -7 15 -19 14 -89 -1 -108 -8 -11 -8 -13 1 -8 13 8 12 -18 -2 -30 -4 -4
-5 -2 0 6 6 10 4 12 -4 7 -7 -5 -10 -15 -7 -23 3 -8 1 -11 -4 -8 -9 6 -14 -8
-11 -27 0 -5 -2 -7 -7 -7 -19 3 -23 -2 -12 -16 10 -12 8 -14 -9 -10 -19 3 -20
1 -10 -17 8 -15 8 -19 0 -14 -11 7 -15 -5 -11 -38 1 -12 -3 -16 -10 -11 -9 6
-9 2 -2 -12 7 -12 7 -24 0 -37 -6 -10 -6 -16 -1 -13 5 3 9 -20 8 -53 0 -33 -4
-58 -10 -57 -5 1 -11 -11 -13 -27 -3 -22 -6 -26 -13 -15 -7 11 -9 9 -9 -8 0
-13 -5 -23 -11 -23 -5 0 -8 -4 -4 -9 3 -5 0 -13 -6 -17 -8 -5 -9 -3 -4 6 5 9
4 11 -3 6 -7 -4 -12 -16 -12 -26 0 -14 -5 -18 -17 -13 -11 4 -14 3 -9 -5 4 -7
1 -12 -8 -12 -9 0 -16 -5 -16 -11 0 -5 6 -7 13 -4 6 4 1 -4 -13 -17 -14 -13
-25 -30 -24 -38 0 -8 -9 -28 -20 -44 -11 -16 -15 -26 -9 -23 7 4 14 3 18 -3 3
-5 0 -10 -8 -10 -11 0 -14 -11 -13 -40 1 -22 -1 -45 -5 -52 -4 -7 -3 -18 2
-25 7 -8 7 -18 -1 -32 -8 -16 -8 -21 2 -21 8 0 9 -3 1 -11 -6 -6 -7 -25 -3
-50 4 -22 3 -42 -1 -45 -5 -3 -6 -13 -1 -22 4 -9 7 -32 7 -49 0 -23 4 -33 15
-34 10 0 9 -3 -4 -8 -19 -7 -19 -8 -1 -15 16 -6 17 -9 5 -16 -9 -6 -10 -10 -3
-10 6 0 12 -8 12 -17 1 -40 5 -53 14 -53 5 0 4 -7 -4 -16 -8 -10 -9 -18 -2
-22 11 -7 11 -68 0 -79 -4 -3 -2 -12 4 -19 8 -9 5 -11 -13 -8 -13 2 -17 1 -10
-2 10 -5 10 -9 0 -22 -10 -12 -10 -14 -1 -8 9 5 11 2 7 -8 -3 -9 -9 -15 -12
-14 -20 2 -23 -4 -11 -19 13 -15 12 -15 -11 -3 -23 12 -24 12 -11 -3 9 -11 10
-17 2 -17 -6 0 -11 -5 -11 -11 0 -5 6 -7 12 -4 7 4 5 0 -6 -9 -10 -8 -15 -20
-10 -27 4 -8 3 -10 -4 -5 -8 5 -12 -1 -12 -14 0 -14 -4 -19 -12 -14 -7 4 -5
-2 5 -13 16 -18 16 -22 2 -33 -20 -17 -19 -30 3 -30 14 0 15 -2 2 -10 -8 -5
-10 -10 -3 -10 6 0 10 -11 8 -26 -1 -15 3 -28 11 -31 8 -3 11 -10 8 -15 -4 -6
0 -14 7 -19 8 -4 14 -14 14 -21 0 -7 8 -12 18 -10 10 2 16 -3 15 -10 -2 -7 3
-12 10 -11 6 2 12 -2 12 -7 0 -6 10 -10 21 -10 17 0 19 -3 10 -14 -10 -12 -8
-13 8 -9 14 4 21 1 21 -10 0 -8 7 -18 16 -21 15 -6 15 -4 3 11 -11 14 -9 13
12 -2 15 -11 24 -24 21 -29 -3 -5 1 -7 9 -4 21 8 41 -16 26 -32 -9 -10 -9 -11
1 -6 11 6 16 -5 13 -26 0 -4 7 -4 16 -1 11 4 14 3 9 -5 -4 -7 -2 -12 5 -12 7
0 9 -10 7 -25 -3 -13 -2 -24 1 -23 18 2 22 -4 11 -17 -10 -12 -8 -14 8 -10 16
3 19 -2 17 -31 -1 -19 3 -34 7 -34 5 0 6 -4 3 -10 -3 -5 -1 -10 5 -10 6 0 8
-4 5 -10 -3 -5 -1 -10 5 -10 7 0 9 -7 6 -16 -4 -10 -2 -13 6 -8 7 5 9 0 6 -14
-4 -15 -2 -19 8 -15 10 4 14 -3 14 -22 0 -15 4 -24 10 -20 6 3 10 -4 10 -17 0
-18 2 -20 10 -8 8 12 10 10 10 -8 0 -13 4 -20 10 -17 5 3 10 -1 10 -9 0 -9 -5
-16 -12 -16 -6 0 -8 -3 -5 -6 4 -4 14 -1 24 7 11 9 14 10 9 2 -4 -8 -2 -13 4
-13 6 0 8 -4 5 -10 -3 -5 0 -10 8 -10 8 0 21 -8 28 -18 13 -16 12 -16 -6 -3
-11 8 -5 0 13 -16 17 -17 32 -36 32 -42 0 -7 3 -10 8 -8 4 3 13 -1 20 -9 7 -8
10 -14 6 -14 -4 0 3 -8 14 -19 12 -10 18 -22 14 -27 -4 -4 2 -2 12 6 11 8 17
10 13 4 -8 -13 26 -47 37 -37 4 4 4 0 1 -9 -4 -11 0 -18 14 -23 12 -3 18 -11
15 -17 -4 -6 -2 -8 3 -5 13 8 80 -18 85 -33 1 -5 15 -11 30 -12 15 -1 25 -5
22 -9 -2 -4 3 -10 12 -13 10 -4 13 -2 9 7 -4 6 1 3 9 -7 9 -11 16 -25 16 -30
0 -6 5 -4 10 4 8 13 10 12 10 -2 0 -10 -5 -18 -12 -18 -6 0 -8 -3 -5 -6 4 -4
13 -1 21 5 11 9 16 9 22 0 4 -8 3 -9 -4 -5 -12 7 -15 -1 -15 -36 0 -10 -5 -14
-13 -11 -8 3 -11 10 -7 16 3 6 1 7 -6 3 -6 -4 -9 -11 -6 -16 10 -16 -6 -39
-22 -33 -10 4 -14 2 -9 -5 3 -6 -3 -13 -14 -17 -11 -3 -19 -9 -19 -13 1 -4 1
-14 0 -22 -1 -13 -2 -13 -12 0 -8 12 -10 9 -6 -12 2 -16 0 -26 -7 -25 -6 1
-10 -4 -8 -11 1 -8 -2 -11 -7 -8 -5 3 -15 -2 -22 -11 -12 -14 -12 -16 1 -8 8
5 3 -4 -13 -20 -22 -23 -25 -31 -15 -44 7 -9 9 -13 4 -9 -11 9 -36 -16 -36
-37 0 -10 -5 -13 -12 -9 -8 5 -8 2 1 -10 12 -15 12 -17 0 -14 -8 2 -13 -3 -11
-10 1 -7 -5 -15 -13 -18 -8 -4 -15 -15 -15 -25 0 -11 -7 -22 -15 -25 -11 -5
-12 -11 -5 -25 8 -14 7 -17 -2 -14 -7 3 -18 -6 -25 -20 -6 -14 -7 -23 -2 -19
5 3 9 0 9 -5 0 -6 -7 -11 -15 -11 -9 0 -12 -6 -8 -17 5 -12 3 -14 -8 -8 -12 8
-12 6 0 -8 11 -14 11 -18 -3 -23 -22 -8 -20 -25 2 -18 12 4 10 0 -7 -15 -13
-12 -19 -21 -14 -21 5 0 9 -9 9 -19 0 -16 -3 -18 -15 -8 -12 9 -13 9 -7 0 4
-8 2 -13 -6 -13 -10 0 -10 -2 1 -9 11 -7 11 -9 0 -13 -9 -3 -14 -20 -14 -44 0
-23 -5 -39 -12 -39 -6 0 -15 -4 -20 -9 -5 -5 -3 -6 5 -2 12 7 16 -3 13 -35 -1
-9 5 -22 14 -29 8 -7 12 -17 9 -22 -3 -5 3 -4 14 3 17 10 23 10 36 0 13 -11
19 -11 33 0 11 10 14 10 9 2 -6 -11 7 -18 17 -10 2 1 12 -5 22 -13 11 -8 16
-10 12 -4 -9 15 13 23 38 14 11 -4 26 -3 34 4 12 9 13 8 6 -3 -6 -11 -4 -13 8
-8 10 4 17 1 17 -6 1 -7 7 -1 15 13 13 22 14 23 15 5 0 -15 2 -17 9 -6 6 10
10 10 16 1 5 -8 12 -7 25 5 12 11 20 13 25 5 5 -8 11 -8 21 1 11 9 14 8 14 -2
0 -9 3 -10 8 -3 8 12 61 13 79 1 6 -4 14 -3 17 2 8 12 88 10 104 -2 9 -7 11
-5 5 9 -6 16 -4 17 8 7 9 -7 20 -8 29 -3 8 5 18 6 23 3 16 -10 87 -8 91 2 3 6
5 5 5 -2 1 -8 10 -9 31 -3 21 6 30 5 30 -3 0 -7 4 -6 10 3 9 13 10 13 10 0 0
-13 1 -13 10 0 9 13 10 13 10 0 0 -13 1 -13 10 0 8 12 10 12 10 -5 0 -13 3
-16 8 -8 4 7 25 10 50 9 25 -2 42 2 42 8 0 6 7 2 15 -8 8 -11 15 -14 15 -8 0
8 12 11 35 9 19 -3 35 0 35 6 0 5 7 4 15 -3 12 -10 15 -9 16 6 0 18 1 18 9 -1
5 -11 9 -15 9 -9 1 8 12 9 36 4 27 -6 35 -5 35 6 0 8 5 14 11 14 5 0 8 -4 4
-9 -3 -5 -1 -12 5 -16 5 -3 10 0 10 7 0 9 3 9 10 -2 9 -13 10 -13 10 0 0 13 1
13 10 0 8 -12 10 -12 11 5 l0 20 9 -20 c5 -11 9 -14 9 -7 1 6 5 12 11 12 5 0
6 -8 3 -17 -7 -17 -6 -17 11 -1 17 18 42 25 33 11 -3 -5 13 -8 34 -8 30 0 38
3 34 15 -3 10 0 9 9 -3 10 -14 15 -15 19 -5 4 10 8 10 16 -2 10 -14 16 -7 11
15 -1 5 9 1 21 -10 12 -11 19 -15 16 -8 -9 15 13 23 35 12 10 -6 19 -5 23 1 4
6 12 7 18 3 20 -13 46 -13 53 -2 4 8 13 3 25 -12 l18 -24 -5 25 c-5 20 -3 22
5 10 6 -8 11 -11 11 -6 0 6 5 5 11 -1 14 -14 42 -5 32 10 -4 6 -1 7 8 1 22
-13 42 -14 58 -1 11 9 13 9 8 0 -5 -8 8 -11 47 -9 31 2 53 0 51 -4 -2 -4 2 -7
10 -7 8 0 12 4 9 9 -8 13 10 10 25 -5 11 -10 13 -9 8 5 -4 12 -2 15 8 11 8 -3
13 -9 10 -13 -3 -5 0 -12 6 -16 7 -4 9 -3 6 3 -9 15 26 22 48 10 13 -7 16 -6
11 2 -9 15 7 14 22 -1 8 -8 12 -8 12 -1 0 6 12 8 28 6 36 -5 45 -6 57 -3 25 6
46 -1 40 -12 -4 -7 3 -2 14 12 12 14 20 19 19 11 -2 -7 5 -15 15 -16 9 -2 15
1 11 6 -10 17 15 9 26 -8 10 -16 11 -16 6 -1 -4 15 -1 16 19 8 21 -8 25 -6 25
8 1 16 1 16 10 0 8 -13 17 -15 40 -8 17 5 28 5 25 0 -3 -4 2 -10 10 -13 8 -4
12 -1 9 6 -5 13 93 16 114 3 7 -4 12 -3 12 2 0 5 12 8 28 5 55 -7 111 -9 107
-4 -1 3 19 6 45 6 27 0 46 -4 43 -8 -3 -5 4 -4 15 2 24 13 35 14 29 4 -3 -5
22 -7 56 -5 40 2 64 -2 70 -10 7 -10 8 -9 4 2 -4 12 2 16 23 14 16 -1 34 -5
41 -9 8 -5 10 -4 5 3 -4 7 -3 12 3 12 5 0 12 -6 14 -12 4 -10 6 -9 6 1 1 11 6
10 21 -4 16 -15 20 -15 15 -3 -5 12 0 15 19 13 14 -2 29 -6 35 -9 5 -4 12 2
14 11 4 15 5 15 6 -2 1 -17 3 -18 11 -5 9 13 10 13 10 0 0 -13 1 -13 10 0 5 8
10 10 10 3 0 -6 8 -10 18 -8 49 10 92 13 88 6 -3 -4 6 -7 19 -7 13 0 22 4 19
8 -5 7 56 0 65 -8 2 -2 10 4 18 14 8 9 12 12 9 5 -4 -6 -2 -14 4 -18 5 -3 10
0 10 7 0 9 3 9 10 -2 6 -9 10 -11 10 -3 0 7 7 10 15 7 8 -4 12 -11 9 -18 -3
-6 1 -3 9 7 11 14 16 15 20 5 4 -10 6 -10 6 1 1 11 4 11 16 1 11 -9 15 -9 15
-1 0 8 10 7 34 -3 25 -10 33 -11 30 -2 -3 7 4 12 15 12 11 0 17 -4 15 -8 -3
-4 1 -6 8 -3 26 10 158 10 162 0 3 -6 5 -5 5 1 1 8 12 9 34 5 23 -5 36 -3 45
8 8 9 11 11 8 5 -8 -17 20 -39 30 -23 5 8 3 9 -6 4 -9 -5 -11 -4 -6 3 4 7 17
10 29 7 12 -3 33 -7 47 -7 14 -1 28 -7 32 -13 5 -6 8 -1 8 10 0 17 2 17 10 5
6 -10 10 -11 10 -3 0 9 7 10 25 3 23 -9 79 -6 113 5 6 2 12 -1 12 -8 0 -8 4
-6 10 3 5 8 10 10 10 5 0 -6 19 -9 46 -6 32 2 49 -1 55 -10 7 -12 9 -12 9 0 0
9 9 12 30 9 17 -3 30 0 30 6 0 6 5 4 10 -4 6 -9 10 -11 10 -3 0 7 6 10 13 8
26 -9 77 -13 77 -6 0 4 14 6 30 3 17 -2 30 -9 30 -16 0 -7 4 -6 9 2 10 17 189
23 195 7 3 -5 5 -4 5 3 1 10 6 10 21 2 16 -9 20 -8 21 7 0 16 1 16 9 -2 5 -11
9 -15 9 -9 1 12 37 12 48 -1 5 -4 2 -5 -6 0 -10 5 -12 4 -7 -4 4 -6 12 -9 17
-5 5 3 7 10 4 15 -7 10 8 12 18 2 13 -12 117 -9 117 5 0 6 5 12 11 12 5 0 8
-4 4 -9 -3 -5 -1 -12 5 -16 5 -3 10 0 10 7 0 9 3 9 10 -2 9 -13 10 -13 10 0 0
13 1 13 10 0 6 -10 10 -11 10 -2 0 6 9 12 21 12 11 0 18 -4 14 -9 -3 -5 0 -13
6 -17 7 -4 9 -3 6 3 -4 6 0 14 9 17 22 9 26 8 18 -5 -4 -8 -1 -8 12 -2 25 12
81 8 99 -7 15 -12 31 3 20 20 -3 6 1 7 9 4 9 -3 14 -9 12 -13 -3 -4 4 -7 14
-7 12 0 16 5 12 16 -4 12 -3 13 9 4 8 -6 22 -14 33 -18 14 -5 17 -3 12 11 -6
14 -4 14 15 -3 12 -10 19 -13 15 -6 -9 16 6 16 23 -1 12 -10 13 -8 7 8 -5 17
-3 16 16 -5 12 -14 19 -18 15 -8 -8 23 24 34 39 13 11 -14 12 -14 18 1 6 15 8
15 28 -2 12 -11 18 -13 14 -6 -4 6 -3 12 1 12 5 0 15 -6 22 -12 11 -11 13 -10
8 4 -4 12 -2 15 8 11 8 -3 12 -9 9 -14 -3 -5 2 -6 10 -3 10 4 16 1 16 -7 0 -7
3 -9 6 -6 4 4 2 13 -4 20 -9 11 -7 13 8 12 11 -1 23 -5 27 -10 5 -4 2 -5 -6 0
-10 6 -12 4 -6 -4 5 -9 11 -9 17 -3 6 6 22 7 39 2 16 -5 27 -5 24 0 -3 4 2 11
11 14 8 3 12 2 9 -4 -7 -11 36 -10 52 2 7 6 14 4 19 -3 5 -8 3 -10 -7 -4 -8 5
-10 4 -6 0 15 -17 39 -14 32 3 -5 13 -3 14 6 5 6 -6 18 -9 27 -6 11 5 13 3 7
-8 -5 -8 -1 -7 12 3 22 20 33 23 33 7 0 -5 -5 -7 -12 -3 -7 4 -8 3 -4 -5 6 -9
11 -9 22 0 8 6 14 8 14 4 0 -4 8 -1 17 6 15 12 16 12 10 -3 -3 -10 -1 -20 5
-24 6 -4 8 -3 4 4 -3 6 -1 14 6 18 14 9 188 12 188 3 0 -8 38 -5 46 4 13 12
24 7 24 -10 0 -15 2 -16 10 -3 5 8 10 11 10 6 0 -5 8 -2 17 5 11 10 14 10 9 2
-4 -8 -2 -13 4 -13 6 0 8 -5 4 -12 -4 -7 -3 -8 5 -4 6 4 9 11 6 16 -3 4 4 10
15 13 10 3 21 0 24 -7 3 -8 7 -7 14 3 8 10 14 11 32 1 15 -8 20 -8 16 -1 -4 6
-2 11 3 11 6 0 11 -6 11 -12 0 -8 3 -9 8 -3 11 16 46 19 36 3 -6 -11 -5 -11 8
0 8 7 23 10 32 6 10 -4 16 -1 16 9 0 9 5 19 12 23 7 5 8 3 3 -6 -5 -9 -4 -11
4 -6 8 6 9 12 2 20 -6 7 -8 15 -5 18 2 3 6 45 7 94 1 49 6 92 12 96 7 5 6 8
-1 8 -13 0 -13 148 0 169 6 9 5 12 -1 8 -7 -5 -11 10 -10 43 0 33 4 47 11 43
6 -4 5 1 -3 11 -15 18 -19 71 -8 99 4 11 2 14 -9 10 -12 -4 -13 -1 -4 21 7 18
6 26 -1 26 -8 0 -8 4 0 13 6 8 7 17 3 21 -4 4 -8 40 -8 79 -3 116 -7 166 -15
161 -4 -2 -8 24 -9 58 -2 86 -2 88 -13 88 -5 0 -3 8 4 17 8 10 9 14 2 10 -6
-4 -14 -3 -18 3 -3 5 -2 10 3 10 12 0 3 50 -12 69 -7 10 -7 13 0 8 6 -3 11 0
11 8 0 8 -4 12 -8 10 -4 -3 -10 2 -13 11 -5 12 -2 15 11 10 15 -5 15 -4 -1 9
-11 8 -14 15 -7 15 7 0 9 5 4 13 -4 6 -6 20 -5 30 2 9 -3 17 -10 17 -8 0 -9 3
-3 8 6 4 11 17 11 30 1 16 -2 20 -11 12 -9 -7 -11 -1 -9 28 1 20 -3 40 -9 44
-9 6 -8 8 1 8 11 0 11 3 0 14 -8 7 -13 27 -12 44 1 18 -4 33 -12 36 -7 3 -11
12 -8 21 3 8 1 15 -5 15 -8 0 -9 6 -2 18 11 21 -5 56 -21 46 -6 -4 -6 2 1 15
8 14 8 21 1 21 -5 0 -9 3 -9 7 4 22 -2 33 -13 27 -10 -6 -10 -4 0 8 10 13 10
17 0 21 -10 4 -10 6 0 6 10 1 10 5 -2 17 -9 8 -14 20 -11 25 4 5 1 9 -4 9 -6
0 -11 5 -11 11 0 5 4 8 8 5 5 -3 9 1 9 9 0 8 -4 12 -8 10 -3 -3 -13 3 -20 12
-12 14 -12 16 1 8 13 -8 13 -6 2 8 -8 9 -11 21 -7 27 3 5 1 10 -5 10 -6 0 -8
5 -5 10 3 6 1 10 -4 10 -6 0 -11 11 -11 25 0 14 -6 25 -12 25 -9 0 -8 4 2 10
10 6 11 10 3 10 -7 0 -13 11 -13 24 0 13 -8 27 -17 30 -14 6 -15 9 -4 15 11 7
9 13 -7 29 -11 11 -18 23 -15 26 4 3 1 6 -6 6 -7 0 -10 4 -7 9 3 4 -1 16 -8
27 -8 10 -12 24 -9 31 3 7 -2 16 -11 19 -12 5 -14 10 -6 19 8 10 8 15 -1 21
-8 4 -9 3 -5 -4 4 -7 5 -12 3 -12 -3 0 -14 15 -25 34 -15 26 -17 37 -9 46 7 7
8 10 2 8 -13 -7 -29 11 -33 37 -2 10 -11 25 -20 31 -10 7 -18 17 -18 23 -1 6
-2 16 -3 22 0 5 -7 7 -13 3 -8 -5 -7 0 2 11 8 10 11 16 5 13 -5 -3 -16 0 -23
8 -10 11 -10 14 0 14 9 0 9 3 -2 9 -8 6 -17 8 -20 6 -3 -2 -7 6 -7 17 -1 12
-6 24 -10 27 -25 18 -51 64 -46 84 4 18 3 19 -7 7 -9 -12 -10 -11 -5 7 3 12 1
24 -5 28 -6 3 -8 10 -5 15 3 5 0 20 -6 32 -10 20 -10 22 2 13 10 -7 10 -5 -1
5 -17 17 -21 71 -5 82 6 5 5 8 -4 8 -10 0 -11 3 -2 14 9 11 9 15 -1 18 -10 4
-10 8 1 21 7 10 9 17 4 17 -5 0 -10 7 -10 15 0 8 5 15 11 15 7 0 8 3 1 8 -14
9 -13 95 0 104 6 5 6 8 -2 8 -12 0 -10 30 2 50 3 6 -2 10 -12 10 -15 0 -16 2
-3 10 8 5 11 10 6 10 -5 0 -3 7 5 16 8 9 9 18 3 22 -11 8 -12 22 -1 40 5 6 4
12 -2 12 -5 0 -8 8 -6 18 1 9 -2 23 -8 30 -6 7 -6 12 -1 11 21 -4 24 2 10 17
-9 8 -13 20 -10 25 13 21 11 61 -3 66 -12 5 -12 7 -1 14 8 6 9 9 1 9 -7 0 -10
15 -8 42 2 27 0 37 -5 28 -5 -8 -7 -17 -4 -21 2 -4 0 -10 -5 -14 -13 -7 -3 45
11 62 7 9 6 14 -6 19 -9 3 -16 10 -16 16 0 5 4 7 8 4 5 -3 9 1 9 9 0 8 -5 12
-11 9 -6 -3 -2 2 9 12 17 14 17 16 2 11 -11 -4 -17 -2 -16 6 3 27 -1 38 -13
31 -8 -5 -7 0 2 11 11 14 12 19 3 22 -7 3 -12 14 -12 26 1 17 2 18 6 5 2 -10
9 -18 13 -18 6 0 6 10 0 24 -6 16 -5 28 3 37 7 8 -1 3 -17 -11 l-29 -25 16 25
c9 14 16 29 16 33 -1 5 3 12 7 15 4 4 4 2 1 -4 -3 -6 0 -11 7 -11 11 0 12 4 3
18 -6 10 -16 15 -22 13 -5 -3 -1 2 9 10 16 13 17 16 4 16 -8 0 -15 8 -15 18 0
57 -4 73 -15 66 -10 -6 -10 -4 0 7 6 7 12 18 12 24 0 5 -5 3 -10 -5 -8 -13
-10 -13 -10 2 0 9 6 19 13 21 10 4 10 6 0 6 -17 1 -17 28 0 34 6 3 3 6 -8 6
-17 1 -17 3 -5 11 12 8 12 10 -5 11 -11 0 -14 3 -7 6 14 6 16 33 2 33 -5 0
-10 9 -10 21 0 13 4 18 13 13 6 -4 4 2 -6 14 -11 11 -16 26 -12 31 3 6 -2 11
-11 11 -16 0 -16 1 2 16 15 13 16 15 2 10 -15 -4 -16 -1 -8 19 6 17 6 25 -1
25 -6 0 -8 9 -4 20 7 21 -10 29 -18 8 -2 -7 -2 11 -1 40 2 32 0 50 -6 47 -6
-3 -10 -3 -11 2 -2 28 -11 61 -24 85 -7 16 -9 26 -4 23 12 -8 11 22 -2 47 -7
13 -7 18 -1 14 6 -3 14 -1 18 5 4 7 3 9 -3 6 -5 -3 -17 3 -26 14 -11 13 -13
19 -4 19 8 0 7 3 -3 9 -8 6 -18 7 -24 4 -5 -3 -6 -1 -2 6 4 6 12 9 17 6 5 -3
6 1 3 10 -5 11 -10 13 -19 5 -11 -9 -12 -7 -8 9 3 12 10 18 17 14 6 -4 5 1 -3
10 -15 19 -26 23 -15 5 5 -7 3 -8 -5 -3 -9 5 -9 11 -3 17 7 7 7 20 0 39 -5 16
-7 36 -4 44 3 8 1 15 -5 15 -6 0 -8 4 -5 9 4 5 0 11 -6 14 -10 3 -10 9 -1 25
11 18 10 20 -2 16 -11 -5 -13 -2 -9 10 4 10 -1 26 -12 38 -11 12 -13 18 -6 14
6 -4 12 -2 12 3 0 6 -4 11 -9 11 -5 0 -7 9 -4 20 3 12 0 20 -7 20 -9 0 -9 4 1
17 10 11 10 14 2 9 -9 -5 -13 1 -13 19 0 22 -15 60 -30 75 -6 6 -12 30 -13 48
0 6 -3 12 -7 12 -4 0 -12 12 -18 26 -7 14 -8 23 -4 20 5 -3 9 1 9 9 0 18 -9
19 -26 3 -11 -11 -12 -10 -7 0 13 22 15 65 3 53 -6 -6 -16 -11 -21 -11 -6 0
-4 5 4 10 12 8 13 11 1 19 -11 7 -11 9 0 14 10 4 10 6 2 6 -14 1 -47 57 -47
81 -1 8 4 18 9 22 6 5 3 8 -6 8 -21 0 -30 31 -16 55 7 14 7 16 -3 10 -10 -6
-12 -4 -7 9 4 9 3 14 -2 11 -5 -3 -12 -1 -16 5 -3 5 0 10 7 10 8 0 9 3 3 8 -5
4 -10 13 -11 20 -3 39 -5 43 -16 37 -7 -4 -4 1 6 9 18 15 18 16 2 16 -9 0 -14
5 -11 10 4 6 12 8 18 4 7 -3 3 2 -7 10 -15 12 -16 16 -5 16 12 0 12 2 0 9 -8
5 -11 16 -8 25 3 8 -1 23 -11 32 -9 9 -16 30 -16 45 1 16 -2 29 -7 29 -5 0 -6
7 -3 15 5 11 2 13 -11 9 -15 -6 -16 -4 -5 16 7 12 8 20 2 16 -10 -6 -26 23
-17 32 3 3 5 -1 5 -8 0 -7 3 -11 6 -8 3 3 1 14 -4 25 -5 10 -13 27 -19 38 -5
11 -9 30 -8 42 1 17 -2 20 -15 13 -12 -6 -16 -4 -16 10 0 10 5 16 11 13 5 -4
0 5 -12 18 -26 29 -29 39 -11 50 10 7 10 9 1 9 -7 0 -13 9 -13 20 0 11 -5 20
-11 20 -8 0 -8 5 1 15 12 14 7 20 -15 15 -5 -1 -1 9 10 21 11 12 14 19 8 15
-7 -4 -13 -3 -13 3 0 5 6 12 13 15 6 3 2 3 -10 0 -22 -5 -26 8 -10 33 4 6 2
15 -4 18 -5 4 -8 13 -5 21 3 7 0 16 -6 20 -7 4 -6 9 3 15 12 7 12 9 0 9 -8 0
-11 6 -7 16 3 8 2 12 -4 9 -6 -3 -10 0 -10 9 0 8 6 17 13 19 7 3 6 6 -5 6 -9
1 -20 6 -24 13 -5 7 -2 8 7 3 11 -6 12 -5 2 6 -7 7 -13 21 -13 32 0 10 -4 16
-8 13 -4 -2 -9 7 -10 22 -1 14 -7 29 -13 33 -6 3 -10 9 -10 13 3 19 -1 28 -19
46 -11 11 -15 20 -10 20 6 0 1 9 -11 21 -16 16 -18 23 -8 35 10 12 9 13 -4 9
-20 -8 -34 15 -16 26 8 5 9 9 3 9 -5 0 -16 -6 -23 -12 -7 -7 -12 -8 -11 -3 6
28 -1 47 -14 42 -11 -4 -13 -1 -9 10 4 11 3 14 -6 9 -14 -9 -11 16 4 26 6 4
-1 8 -15 8 -20 0 -22 2 -10 10 13 8 12 10 -3 10 -10 0 -15 5 -12 10 3 6 1 10
-5 10 -6 0 -8 4 -5 10 3 5 -5 21 -19 35 -15 14 -26 30 -26 36 0 6 -4 8 -9 4
-5 -3 -12 4 -16 15 -3 11 -15 25 -26 31 -11 5 -16 15 -13 21 4 6 3 8 -2 5 -6
-3 -16 -2 -24 4 -13 7 -13 9 0 9 8 1 4 5 -9 11 -16 6 -21 14 -17 25 6 15 4 15
-11 3 -11 -9 -14 -10 -9 -1 5 8 1 12 -11 12 -15 0 -16 2 -3 10 8 5 10 10 4 10
-5 0 -19 7 -30 15 -19 15 -19 15 1 9 17 -4 16 -3 -3 8 -12 8 -19 18 -15 23 4
5 1 4 -9 -3 -14 -11 -16 -9 -14 16 2 23 -2 28 -13 24 -10 -4 -13 -1 -8 11 7
18 -24 42 -38 29 -5 -4 -5 -1 -1 6 4 7 12 10 17 7 5 -3 6 1 3 10 -4 9 -9 14
-11 11 -10 -9 -35 24 -29 39 3 9 0 12 -10 8 -8 -3 -14 1 -14 11 0 9 -6 16 -12
16 -9 0 -8 4 2 10 13 8 12 10 -4 10 -11 0 -16 3 -13 6 4 4 -2 15 -14 25 -15
13 -17 19 -7 23 7 3 3 4 -10 2 -19 -4 -21 -2 -11 10 9 11 9 14 0 14 -7 0 -9 5
-6 10 3 6 -2 10 -12 11 -16 0 -16 1 2 9 19 8 19 9 -3 9 -13 1 -20 5 -17 11 3
6 1 10 -4 10 -6 0 -11 6 -11 14 0 18 -27 29 -33 13 -2 -7 -4 0 -4 15 0 17 4
25 10 21 5 -3 7 -1 3 5 -3 6 -17 9 -31 6 -19 -3 -23 -1 -19 11 4 10 0 15 -10
15 -14 0 -21 18 -17 43 1 5 -3 6 -9 2 -6 -3 -8 -11 -5 -16 9 -14 -5 -11 -21 6
-9 8 -12 20 -8 26 4 7 -1 7 -16 -1 -15 -8 -20 -8 -16 -1 7 10 -7 16 -28 12 -5
-1 -3 6 5 15 13 16 12 16 -8 6 -17 -9 -22 -9 -27 4 -4 10 -2 13 6 8 7 -5 8 -3
4 5 -5 7 -14 10 -22 7 -17 -7 -19 10 -1 18 6 4 2 4 -10 2 -15 -3 -23 1 -23 10
0 8 -7 14 -16 14 -9 0 -12 5 -8 13 5 8 2 7 -9 -2 -15 -12 -17 -12 -11 4 5 13
4 16 -4 11 -7 -4 -12 -2 -12 3 0 6 -5 11 -11 11 -5 0 -7 -6 -3 -12 5 -9 2 -9
-9 1 -18 15 -23 26 -7 16 6 -3 10 -1 10 6 0 6 -8 9 -19 6 -10 -2 -25 0 -32 5
-11 8 -10 9 3 4 10 -3 20 -1 23 3 3 5 -8 8 -24 7 -17 -1 -27 2 -25 9 3 6 -3
11 -13 12 -46 2 -73 8 -73 15 0 4 -7 4 -17 1 -11 -4 -14 -3 -9 5 5 8 2 10 -8
6 -9 -3 -16 -2 -16 2 0 5 -18 10 -39 10 -25 1 -48 10 -62 23 -12 11 -27 17
-33 13 -30 -19 -41 -6 -22 28 4 8 -2 4 -13 -9 -17 -19 -21 -20 -21 -6 0 12 -6
16 -20 12 -16 -4 -18 -2 -10 13 9 17 7 18 -21 10 -28 -8 -29 -7 -17 7 11 15
10 16 -10 11 -15 -4 -26 0 -35 11 -7 11 -24 17 -44 16 -18 0 -33 4 -33 9 0 5
-3 6 -7 3 -3 -4 -13 -1 -21 6 -13 9 -14 9 -8 0 9 -17 -4 -17 -29 0 -23 14 -44
15 -64 2 -10 -5 -16 -4 -19 3 -2 6 -10 8 -19 5 -8 -3 -19 0 -24 8 -7 12 -9 12
-9 -1 0 -13 -1 -13 -10 0 -8 12 -12 13 -19 2 -6 -11 -10 -10 -15 3 -5 15 -9
15 -23 4 -12 -11 -17 -11 -20 -2 -2 7 -11 9 -19 6 -7 -3 -11 -10 -7 -16 3 -6
1 -7 -6 -3 -6 4 -8 12 -5 18 4 7 -2 8 -17 3 -13 -4 -21 -4 -17 0 12 13 -12 34
-29 28 -12 -5 -14 -3 -8 8 8 12 6 12 -8 0 -15 -12 -21 -9 -19 10 1 3 -10 4
-23 1 -15 -2 -25 0 -25 7 0 7 -4 9 -10 6 -5 -3 -10 -2 -10 3 0 5 -12 8 -27 6
-15 -1 -31 3 -35 9 -6 9 -10 8 -18 -3 -7 -12 -12 -12 -22 -2 -6 6 -27 12 -46
12 -24 0 -31 3 -26 13 5 8 2 8 -9 -2 -14 -11 -17 -11 -17 0 0 12 -2 12 -9 0
-6 -9 -10 -10 -12 -2 -2 6 -17 14 -33 17 -27 5 -28 4 -15 -13 13 -17 13 -17
-5 -3 -20 16 -186 22 -183 6z m577 -86 c0 -5 -5 -10 -11 -10 -5 0 -7 5 -4 10
3 6 8 10 11 10 2 0 4 -4 4 -10z m641 -177 c13 -16 12 -17 -3 -4 -10 7 -18 15
-18 17 0 8 8 3 21 -13z m-3936 -2313 c3 -6 -1 -7 -9 -4 -18 7 -21 14 -7 14 6
0 13 -4 16 -10z m-238 -375 c0 -8 -4 -12 -9 -9 -5 3 -6 10 -3 15 9 13 12 11
12 -6z m-2 -744 c3 -5 2 -12 -3 -15 -5 -3 -9 1 -9 9 0 17 3 19 12 6z m6292
-837 c-3 -3 -12 -4 -19 -1 -8 3 -5 6 6 6 11 1 17 -2 13 -5z m16 -149 c-3 -9
-8 -14 -10 -11 -3 3 -2 9 2 15 9 16 15 13 8 -4z m-5933 -3239 c0 -3 -4 -8 -10
-11 -5 -3 -10 -1 -10 4 0 6 5 11 10 11 6 0 10 -2 10 -4z m4114 -144 c3 -5 -1
-9 -9 -9 -8 0 -12 4 -9 9 3 4 7 8 9 8 2 0 6 -4 9 -8z m-3994 -20 c0 -5 -7 -9
-15 -9 -8 0 -12 4 -9 9 3 4 9 8 15 8 5 0 9 -4 9 -8z"/>
<path d="M6066 9038 c3 -5 10 -6 15 -3 13 9 11 12 -6 12 -8 0 -12 -4 -9 -9z"/>
<path d="M3641 8763 c-2 -20 16 -24 30 -5 13 15 12 16 -3 4 -13 -10 -17 -10
-21 0 -4 9 -6 9 -6 1z"/>
<path d="M2626 7438 c3 -5 10 -6 15 -3 13 9 11 12 -6 12 -8 0 -12 -4 -9 -9z"/>
<path d="M7725 7140 c-3 -5 -1 -10 4 -10 6 0 11 5 11 10 0 6 -2 10 -4 10 -3 0
-8 -4 -11 -10z"/>
<path d="M7935 6446 c10 -14 19 -26 22 -26 7 0 -17 39 -28 46 -6 3 -3 -5 6
-20z"/>
<path d="M8015 6281 c-3 -5 -2 -12 3 -15 5 -3 9 1 9 9 0 17 -3 19 -12 6z"/>
<path d="M1895 5829 c-4 -6 -5 -12 -2 -15 2 -3 7 2 10 11 7 17 1 20 -8 4z"/>
<path d="M8450 3760 c6 -11 13 -20 16 -20 2 0 0 9 -6 20 -6 11 -13 20 -16 20
-2 0 0 -9 6 -20z"/>
<path d="M3953 1125 c0 -8 4 -12 9 -9 5 3 6 10 3 15 -9 13 -12 11 -12 -6z"/>
<path d="M7955 1130 c3 -5 8 -10 11 -10 2 0 4 5 4 10 0 6 -5 10 -11 10 -5 0
-7 -4 -4 -10z"/>
<path d="M8627 1129 c7 -7 15 -10 18 -7 3 3 -2 9 -12 12 -14 6 -15 5 -6 -5z"/>
</g>
</svg>
