<?xml version="1.0" standalone="no"?>
<!DOCTYPE svg PUBLIC "-//W3C//DTD SVG 20010904//EN"
 "http://www.w3.org/TR/2001/REC-SVG-20010904/DTD/svg10.dtd">
<svg version="1.0" xmlns="http://www.w3.org/2000/svg"
 width="700.000000pt" height="700.000000pt" viewBox="0 0 700.000000 700.000000"
 preserveAspectRatio="xMidYMid meet">
<metadata>
Created by potrace 1.14, written by Peter Selinger 2001-2017
</metadata>
<g transform="translate(0.000000,700.000000) scale(0.100000,-0.100000)"
fill="#000000" stroke="none">
<path d="M3278 6995 c-1 -1 -41 -5 -88 -9 -47 -4 -96 -8 -110 -10 -14 -2 -46
-7 -71 -10 -51 -7 -66 -10 -154 -25 -86 -16 -104 -19 -125 -26 -10 -3 -27 -7
-37 -9 -10 -2 -38 -9 -63 -16 -25 -7 -49 -13 -55 -14 -131 -29 -406 -132 -597
-225 -177 -87 -257 -132 -398 -225 -602 -398 -1066 -965 -1330 -1626 -64 -161
-142 -412 -165 -531 -3 -13 -14 -69 -25 -124 -42 -212 -55 -370 -55 -655 1
-202 6 -314 20 -405 3 -16 7 -48 10 -70 15 -128 32 -216 75 -385 80 -315 223
-658 382 -918 35 -57 68 -111 73 -121 26 -44 135 -193 208 -284 160 -199 348
-385 557 -552 89 -71 261 -195 285 -204 5 -2 40 -24 78 -48 176 -113 551 -282
772 -348 50 -14 104 -30 120 -35 17 -5 41 -11 55 -14 14 -2 43 -9 65 -15 55
-14 214 -44 304 -57 25 -3 57 -8 71 -10 164 -26 681 -25 842 1 13 2 43 6 68 9
25 4 57 8 73 11 27 5 39 7 112 20 22 4 85 18 140 32 55 13 107 26 115 28 70
17 238 74 345 115 512 201 974 523 1335 929 36 41 70 79 75 85 21 22 143 182
191 251 136 192 283 466 374 695 74 186 157 467 185 625 25 141 35 208 40 255
3 30 8 73 11 95 9 71 12 507 4 600 -8 87 -18 178 -25 220 -2 11 -6 45 -10 75
-4 30 -9 58 -11 61 -2 4 -6 24 -10 45 -11 72 -72 308 -109 419 -293 881 -919
1609 -1741 2025 -346 175 -668 278 -1079 344 -16 3 -55 8 -85 11 -30 4 -73 9
-95 12 -45 5 -541 13 -547 8z m537 -68 c11 -3 52 -8 90 -12 61 -6 103 -12 270
-41 355 -61 843 -259 1183 -481 330 -214 665 -523 867 -798 17 -22 33 -42 36
-45 15 -12 161 -233 214 -323 59 -102 183 -352 208 -422 8 -22 29 -78 47 -125
50 -133 121 -377 134 -464 4 -21 8 -41 10 -45 2 -3 7 -28 10 -54 4 -26 11 -71
16 -98 6 -28 12 -79 16 -113 3 -33 8 -72 10 -86 10 -45 12 -513 4 -595 -16
-153 -21 -191 -36 -285 -38 -244 -128 -552 -232 -795 -27 -63 -148 -305 -179
-357 -85 -142 -120 -196 -199 -304 -118 -162 -207 -267 -349 -409 -150 -150
-212 -204 -380 -330 -364 -273 -778 -471 -1215 -581 -69 -17 -232 -51 -285
-58 -22 -4 -53 -9 -70 -11 -16 -3 -43 -7 -59 -10 -168 -26 -671 -27 -836 -1
-37 6 -109 16 -155 22 -22 3 -83 15 -135 26 -508 107 -980 324 -1391 639 -141
108 -199 160 -339 299 -264 265 -457 528 -626 855 -188 362 -301 727 -359
1161 -30 222 -27 651 5 875 6 41 13 85 15 99 27 189 109 484 196 704 215 544
589 1052 1042 1413 252 202 540 375 812 488 50 20 104 43 120 51 86 37 359
117 510 150 29 6 196 35 225 40 86 12 114 15 195 20 50 3 92 8 95 11 6 5 488
-4 515 -10z"/>
<path d="M3388 6815 c-2 -1 -55 -5 -118 -9 -63 -3 -131 -8 -150 -11 -55 -7
-182 -26 -215 -31 -49 -8 -203 -44 -300 -71 -312 -85 -618 -223 -905 -408 -92
-60 -277 -196 -341 -252 -139 -122 -302 -285 -400 -403 -105 -125 -254 -333
-305 -425 -6 -11 -28 -49 -48 -85 -137 -241 -292 -637 -330 -842 -2 -12 -9
-41 -14 -63 -6 -22 -13 -56 -16 -75 -3 -19 -10 -57 -15 -85 -5 -27 -12 -74
-16 -104 -4 -30 -9 -63 -11 -75 -16 -82 -23 -466 -11 -629 35 -466 178 -945
403 -1349 54 -98 211 -343 237 -370 7 -7 31 -38 55 -69 141 -186 372 -416 582
-580 98 -77 321 -229 335 -229 4 0 19 -9 34 -19 90 -64 423 -216 607 -276 166
-55 414 -115 529 -129 28 -4 64 -9 80 -12 251 -41 673 -36 975 12 765 121
1486 528 1995 1125 277 325 491 706 625 1110 30 90 87 302 96 357 3 15 11 63
19 107 65 370 65 821 0 1155 -3 14 -8 41 -11 60 -4 19 -8 42 -9 50 -2 8 -15
62 -29 120 -200 807 -715 1522 -1426 1982 -276 179 -612 327 -931 412 -131 34
-320 72 -413 82 -23 2 -56 7 -74 9 -80 12 -474 28 -484 20z m367 -139 c68 -5
165 -17 250 -30 11 -2 40 -7 65 -11 80 -12 352 -83 455 -118 387 -132 750
-342 1075 -622 139 -119 367 -371 485 -535 146 -202 315 -517 398 -743 40
-107 100 -299 112 -356 2 -9 10 -48 19 -86 30 -139 52 -290 63 -425 13 -165 6
-513 -11 -608 -2 -9 -7 -44 -11 -77 -5 -49 -22 -146 -50 -287 -35 -174 -146
-480 -252 -692 -210 -423 -530 -816 -887 -1091 -22 -16 -51 -39 -65 -51 -41
-33 -229 -157 -306 -201 -411 -238 -902 -389 -1360 -420 -182 -12 -514 -5
-605 12 -9 2 -41 6 -70 10 -29 4 -60 8 -69 10 -9 1 -56 10 -106 19 -49 9 -103
21 -120 26 -16 5 -41 11 -55 14 -56 10 -272 80 -380 123 -125 50 -332 151
-450 221 -663 392 -1178 1036 -1414 1771 -39 123 -76 269 -105 421 -60 316
-60 753 0 1095 5 33 12 69 14 80 11 69 72 293 106 392 228 666 659 1230 1239
1622 324 219 659 367 1040 460 148 35 356 68 495 77 55 4 101 7 102 8 5 5 324
-2 398 -8z"/>
<path d="M3375 6450 l-100 -5 3 -239 c1 -131 4 -242 7 -245 3 -6 60 -6 120 -2
7 1 10 32 10 81 -2 81 -1 81 24 78 19 -2 33 -18 63 -73 21 -38 39 -74 41 -79
3 -9 137 -9 146 -1 2 3 -1 10 -6 17 -6 7 -29 47 -51 89 l-41 76 24 13 c57 30
76 149 35 215 -40 65 -108 83 -275 75z m141 -121 c18 -14 18 -73 1 -87 -7 -6
-34 -13 -60 -15 l-47 -5 0 57 c0 32 2 60 5 63 9 9 87 -1 101 -13z"/>
<path d="M2975 6408 c-71 -15 -143 -29 -160 -32 -135 -25 -128 -20 -120 -69
10 -57 13 -60 54 -53 20 3 52 8 72 11 l36 6 13 -63 c7 -35 14 -76 17 -93 3
-16 13 -70 24 -119 10 -49 19 -93 19 -97 0 -6 119 17 127 25 2 1 -13 85 -34
185 -40 204 -42 195 36 205 72 10 77 15 60 73 l-14 48 -130 -27z"/>
<path d="M3868 6188 c-69 -123 -124 -224 -123 -226 2 -2 32 -9 67 -17 63 -13
88 -8 88 19 0 6 8 21 18 33 15 20 21 22 52 14 19 -6 53 -12 74 -16 22 -3 41
-7 42 -8 1 -1 4 -21 7 -45 2 -23 7 -45 10 -48 5 -5 60 -20 115 -30 22 -4 24
-2 18 33 -3 21 -12 97 -21 168 -9 72 -17 144 -20 160 -2 17 -7 57 -11 91 l-6
61 -77 17 c-42 9 -83 16 -92 16 -9 0 -62 -84 -141 -222z m197 26 c2 -21 7 -58
9 -82 5 -37 3 -43 -12 -38 -9 2 -32 8 -50 11 -18 4 -32 10 -30 13 34 70 73
141 75 138 2 -1 5 -20 8 -42z"/>
<path d="M4543 6213 c-89 -30 -165 -145 -169 -257 -4 -94 41 -168 131 -211 94
-46 193 -34 255 30 39 40 37 44 -37 75 -48 20 -54 21 -68 6 -24 -24 -61 -24
-107 0 -30 16 -42 44 -39 93 3 60 61 146 101 151 67 10 125 -30 118 -81 -4
-26 0 -30 56 -53 73 -29 81 -23 74 61 -12 137 -175 233 -315 186z"/>
<path d="M2155 6135 c-22 -8 -77 -34 -121 -57 l-81 -43 109 -221 110 -221 107
55 c117 60 153 88 182 145 26 49 29 101 12 161 -47 158 -176 232 -318 181z
m122 -117 c26 -13 72 -94 75 -136 1 -17 -4 -42 -11 -55 -15 -29 -89 -73 -101
-61 -21 24 -111 216 -107 228 7 16 86 45 107 39 8 -3 25 -9 37 -15z"/>
<path d="M5028 5938 c-30 -40 -80 -111 -113 -158 -32 -47 -71 -101 -87 -121
-15 -20 -28 -39 -28 -42 0 -8 96 -77 106 -77 5 0 20 19 34 41 26 43 49 62 88
74 25 7 24 15 7 -170 -3 -39 -2 -41 57 -83 71 -51 77 -48 78 43 1 70 10 205
14 220 2 6 61 28 130 49 69 22 126 42 126 45 0 3 -28 25 -61 47 l-60 42 -117
-39 c-64 -20 -118 -36 -120 -34 -2 2 20 35 48 75 28 40 53 77 55 84 4 9 -63
60 -96 74 -4 2 -32 -30 -61 -70z"/>
<path d="M1652 5824 c-163 -81 -188 -262 -55 -401 71 -73 149 -96 236 -69 147
45 220 202 154 332 -73 144 -210 201 -335 138z m148 -123 c44 -32 82 -95 82
-137 0 -50 -45 -94 -97 -94 -86 0 -178 150 -131 212 36 48 95 56 146 19z"/>
<path d="M3417 5784 c-1 -1 -42 -4 -92 -8 -370 -24 -764 -158 -1082 -369 -347
-231 -608 -528 -793 -902 -104 -211 -193 -501 -214 -695 -3 -25 -8 -74 -12
-109 -9 -87 -9 -298 0 -403 7 -89 8 -97 27 -203 17 -95 17 -96 39 -175 11 -41
22 -82 24 -90 16 -63 87 -237 141 -345 292 -591 833 -1031 1470 -1195 64 -16
128 -32 143 -34 15 -2 47 -8 72 -11 25 -4 52 -9 60 -10 51 -9 191 -18 290 -18
369 -2 709 78 1036 243 107 54 323 185 344 209 3 3 28 24 55 46 409 326 707
809 811 1315 53 259 63 517 29 768 -20 156 -47 268 -101 431 -143 430 -423
819 -790 1096 -249 188 -568 337 -856 401 -88 20 -236 44 -303 49 -75 7 -293
13 -298 9z m343 -468 c292 -25 556 -143 751 -336 85 -84 127 -146 193 -282
120 -250 133 -507 41 -795 -38 -117 -138 -313 -226 -445 l-78 -117 38 -79
c180 -363 149 -792 -81 -1119 -99 -141 -256 -276 -403 -346 -44 -21 -88 -43
-97 -48 -10 -5 -61 -20 -115 -34 -140 -37 -259 -46 -395 -31 -37 4 -69 7 -70
7 -2 -1 -45 10 -97 24 -405 109 -714 441 -796 857 -14 73 -15 343 -1 398 3 14
8 36 11 50 2 14 20 73 40 132 55 170 48 232 -45 384 -184 301 -262 599 -227
864 28 203 153 459 288 586 202 190 441 297 734 330 33 3 61 7 62 8 5 4 403
-2 473 -8z"/>
<path d="M2985 5212 c-6 -5 -37 -16 -70 -26 -226 -68 -471 -283 -568 -497 -67
-146 -85 -249 -79 -443 2 -59 8 -57 17 4 39 278 156 529 323 698 103 103 183
159 327 228 50 24 83 43 75 44 -9 0 -20 -4 -25 -8z"/>
<path d="M3417 4864 c-1 -1 -42 -4 -92 -7 -227 -15 -377 -73 -471 -181 -48
-54 -98 -163 -119 -257 -19 -90 -22 -132 -11 -222 24 -218 112 -362 251 -415
l56 -22 58 24 c190 81 427 102 647 57 55 -11 164 -46 204 -66 21 -10 34 -9 77
5 131 43 220 173 254 370 43 251 -56 510 -234 614 -53 31 -178 73 -237 80
-129 15 -175 18 -273 19 -60 1 -109 2 -110 1z"/>
<path d="M3427 3834 c-1 -1 -28 -4 -60 -8 -88 -9 -173 -33 -260 -73 l-78 -36
-57 17 c-31 10 -84 36 -117 58 -58 39 -59 39 -30 8 35 -37 101 -86 166 -123
l45 -27 41 30 c81 60 230 120 335 135 94 14 113 17 117 21 3 3 -98 1 -102 -2z"/>
<path d="M2452 2802 c-1 -164 11 -253 49 -372 71 -222 232 -411 440 -515 93
-47 97 -44 14 11 -216 144 -352 309 -414 505 -11 35 -23 78 -26 94 -16 93 -26
160 -30 212 -2 32 -8 85 -11 118 -4 33 -7 68 -6 77 0 10 -3 20 -7 22 -5 3 -9
-65 -9 -152z"/>
<path d="M5380 5480 l-174 -169 24 -27 c88 -95 214 -224 221 -224 4 0 23 15
43 33 l35 33 -57 61 c-107 114 -100 100 -67 128 15 14 30 25 33 25 3 0 36 -32
73 -71 l68 -71 39 39 39 38 -71 73 -71 72 31 31 30 30 77 -81 77 -80 40 37 40
38 -123 128 c-68 70 -125 127 -127 127 -3 -1 -84 -77 -180 -170z"/>
<path d="M1231 5453 c-34 -47 -39 -59 -29 -72 16 -20 125 -147 160 -186 15
-16 25 -31 24 -33 -2 -2 -66 22 -141 52 -75 31 -140 56 -144 56 -4 0 -22 -20
-40 -45 -22 -31 -30 -50 -23 -58 5 -7 45 -57 89 -112 43 -55 82 -105 86 -112
7 -11 -149 54 -225 93 -30 16 -68 19 -68 5 0 -4 -16 -29 -36 -55 -20 -26 -34
-49 -32 -50 7 -6 481 -177 482 -174 2 2 19 25 39 51 l36 49 -84 114 c-47 63
-81 114 -75 114 5 0 65 -20 134 -44 l125 -44 36 44 c20 24 35 51 33 60 -4 18
-290 403 -300 404 -4 0 -25 -25 -47 -57z"/>
<path d="M5723 5127 c-100 -67 -189 -127 -199 -132 -15 -10 -13 -16 21 -67
l37 -57 42 27 c22 14 52 34 65 44 18 14 27 15 37 7 21 -17 18 -29 -26 -109
-22 -40 -40 -76 -40 -79 0 -3 18 -32 39 -65 l39 -59 26 52 c24 46 66 123 70
128 1 1 21 -3 46 -8 100 -23 201 65 195 168 -2 42 -28 94 -89 183 -17 25 -36
54 -41 65 -6 11 -17 21 -25 22 -8 1 -97 -53 -197 -120z m207 -79 c27 -44 25
-74 -5 -94 -35 -23 -69 -11 -96 32 -18 30 -20 38 -8 45 8 4 28 17 44 28 40 26
42 26 65 -11z"/>
<path d="M639 3740 l-23 -80 -83 -25 c-46 -14 -83 -27 -83 -28 0 -2 31 -25 70
-52 l69 -50 3 -87 3 -87 68 51 69 51 76 -26 c42 -15 78 -25 80 -22 3 3 -7 39
-21 81 l-26 77 49 68 c28 38 50 71 50 73 0 2 -38 3 -85 2 l-86 -3 -47 68 c-26
38 -50 69 -53 69 -4 0 -17 -36 -30 -80z"/>
<path d="M6202 3757 l-63 -64 -81 14 c-44 8 -82 12 -84 10 -3 -2 13 -37 35
-77 l38 -72 -39 -75 c-22 -41 -38 -76 -35 -79 2 -2 26 0 53 5 115 23 109 25
170 -40 31 -32 60 -56 64 -54 5 3 11 33 15 67 10 94 11 96 91 134 41 20 74 38
74 40 0 2 -33 20 -72 40 -40 20 -74 37 -76 39 -5 5 -25 128 -25 163 0 6 -1 12
-1 12 -1 0 -30 -29 -64 -63z"/>
<path d="M5955 2768 c-18 -16 -33 -48 -49 -103 l-24 -80 42 -13 c22 -7 89 -25
147 -41 l106 -29 11 34 c12 39 12 38 -46 54 -63 16 -54 41 23 60 54 14 60 18
67 49 5 18 8 35 6 37 -3 3 -74 -11 -109 -22 -12 -3 -19 3 -23 21 -13 52 -105
72 -151 33z m93 -101 c4 -43 -8 -51 -53 -38 -24 6 -29 13 -27 31 4 34 22 51
51 48 22 -3 26 -9 29 -41z"/>
<path d="M873 2760 c-77 -34 -105 -124 -64 -200 21 -41 70 -73 104 -68 21 3
23 6 15 34 -4 18 -18 35 -33 42 -32 15 -45 49 -33 83 16 47 109 72 148 41 29
-24 35 -67 12 -90 -14 -14 -16 -25 -10 -50 10 -38 27 -41 55 -9 43 47 46 123
6 183 -36 55 -122 70 -200 34z"/>
<path d="M5826 2434 c-21 -52 -36 -97 -33 -100 12 -13 273 -112 279 -106 8 9
65 152 70 177 2 13 -5 20 -24 26 -23 6 -28 3 -34 -14 -4 -12 -15 -41 -25 -64
-17 -41 -20 -42 -44 -31 -30 14 -30 14 -5 79 12 28 19 53 18 54 -2 2 -15 6
-29 10 -25 6 -28 3 -45 -42 -23 -62 -26 -66 -57 -54 l-26 10 18 51 c10 27 21
53 24 57 12 12 7 20 -18 31 -14 7 -27 12 -29 12 -1 0 -20 -43 -40 -96z"/>
<path d="M999 2443 l-136 -57 12 -30 c17 -39 23 -40 70 -17 39 19 40 19 49 1
6 -14 0 -29 -29 -64 -35 -43 -36 -46 -24 -81 7 -19 15 -35 19 -35 3 1 22 23
43 50 36 46 40 49 59 36 23 -16 71 -11 104 11 25 16 46 74 37 101 -14 46 -57
142 -62 142 -3 -1 -67 -26 -142 -57z m131 -59 c15 -40 12 -53 -16 -66 -23 -11
-29 -10 -45 11 -27 33 -24 55 9 68 40 16 42 15 52 -13z"/>
<path d="M5747 2255 c-17 -35 -16 -37 13 -102 17 -36 30 -70 30 -75 0 -4 -22
3 -50 17 -61 31 -64 31 -78 0 -16 -34 -18 -30 31 -58 135 -79 220 -118 229
-105 30 45 30 48 -7 69 -37 22 -61 54 -47 63 5 3 36 6 69 7 60 2 62 3 83 41
l22 39 -102 -3 -103 -3 -27 63 c-36 84 -43 90 -63 47z"/>
<path d="M1160 2184 c-55 -16 -109 -69 -119 -116 -11 -46 9 -102 47 -141 86
-85 262 -6 262 117 0 44 -40 119 -70 132 -42 17 -79 20 -120 8z m105 -84 c44
-48 0 -121 -82 -136 -55 -10 -97 55 -66 102 17 27 69 53 104 54 14 0 34 -9 44
-20z"/>
<path d="M5600 1965 c-82 -35 -111 -147 -57 -218 30 -40 99 -77 144 -77 35 0
87 32 117 73 25 34 26 105 2 142 l-17 26 -18 -23 c-12 -15 -18 -38 -17 -67 1
-66 -34 -88 -104 -66 -26 8 -70 62 -70 86 0 29 47 72 71 66 21 -6 65 41 51 55
-16 16 -68 17 -102 3z"/>
<path d="M1373 1910 c-52 -21 -62 -73 -28 -153 23 -55 20 -69 -12 -65 -34 4
-59 48 -44 75 7 14 3 25 -14 47 l-23 29 -20 -32 c-12 -20 -18 -44 -16 -64 6
-49 55 -110 103 -127 38 -13 42 -13 68 6 45 34 51 66 25 136 -16 45 -19 65
-11 74 8 10 16 11 31 3 23 -12 39 -50 27 -63 -4 -5 1 -22 13 -39 l21 -30 19
23 c10 12 18 36 18 54 0 42 -44 104 -86 122 -38 16 -41 16 -71 4z"/>
<path d="M1534 1663 c-31 -29 -31 -76 1 -128 31 -50 33 -85 5 -85 -33 0 -63
38 -57 70 5 20 0 33 -17 49 l-24 22 -16 -22 c-22 -31 -20 -64 5 -108 40 -72
126 -105 170 -65 37 33 39 73 8 136 -37 74 -25 111 25 73 10 -8 18 -26 18 -42
0 -37 36 -77 55 -62 23 20 16 94 -13 129 -52 61 -115 75 -160 33z"/>
<path d="M5333 1653 l-31 -37 22 -36 c13 -19 46 -80 75 -135 30 -55 55 -102
57 -104 4 -5 54 50 54 59 0 3 -7 16 -16 28 -15 21 -14 25 13 56 36 44 51 50
78 32 21 -14 25 -13 50 15 16 16 27 30 24 32 -8 7 -279 127 -287 127 -4 0 -21
-17 -39 -37z m120 -74 l44 -22 -20 -23 c-11 -13 -23 -24 -27 -24 -4 0 -24 34
-48 83 -5 11 4 9 51 -14z"/>
<path d="M1714 1418 c-43 -51 -87 -102 -97 -113 -18 -19 -17 -21 10 -43 l28
-23 42 47 41 46 24 -22 c12 -12 34 -30 48 -40 24 -17 25 -17 42 5 18 23 17 24
-30 64 l-47 41 22 21 22 22 51 -43 51 -42 19 22 20 23 -37 31 c-20 17 -52 46
-72 63 -20 18 -41 33 -47 33 -6 0 -47 -42 -90 -92z"/>
<path d="M5175 1479 c-26 -7 -135 -90 -142 -108 -2 -3 9 -19 23 -36 14 -16 44
-52 67 -80 23 -27 56 -65 74 -85 l31 -35 26 24 25 24 -30 39 c-24 30 -29 41
-20 52 10 12 21 11 71 -7 l60 -22 26 27 27 26 -38 17 c-22 8 -49 18 -61 21
-19 5 -22 11 -17 35 3 19 -1 38 -13 56 -32 51 -61 64 -109 52z m43 -85 c13
-23 4 -50 -23 -68 -21 -14 -24 -13 -44 10 -25 29 -26 32 -4 56 20 22 59 23 71
2z"/>
<path d="M1916 1232 c-47 -64 -86 -122 -86 -127 0 -6 12 -18 27 -27 l27 -16
45 61 c25 34 65 88 89 120 45 61 45 74 1 98 -15 7 -31 -9 -103 -109z"/>
<path d="M4885 1273 c-55 -36 -102 -67 -104 -69 -2 -2 4 -15 13 -29 17 -26 17
-26 44 -7 15 10 32 22 38 25 8 4 38 -32 79 -93 36 -55 69 -100 73 -100 4 0 18
9 32 19 l24 19 -68 103 c-54 81 -65 104 -54 110 8 5 25 17 38 27 19 16 21 22
11 40 -6 12 -15 22 -19 22 -4 -1 -52 -30 -107 -67z"/>
<path d="M2088 1250 c-15 -27 -15 -29 0 -35 9 -3 27 -13 40 -23 l24 -18 -61
-101 c-34 -55 -61 -103 -61 -107 0 -3 13 -12 30 -21 34 -17 24 -28 107 112
l49 82 39 -24 c36 -21 40 -22 52 -7 7 10 13 22 13 28 0 6 -39 35 -87 64 -49
29 -97 59 -108 66 -18 12 -22 10 -37 -16z"/>
<path d="M4575 1096 c-39 -18 -86 -38 -105 -46 -55 -21 -61 -28 -48 -56 9 -18
16 -23 32 -18 12 3 25 10 31 15 22 21 39 4 77 -78 22 -49 44 -98 49 -110 8
-21 10 -22 41 -8 18 8 32 19 31 24 -2 6 -23 56 -48 111 -25 55 -45 102 -45
104 0 1 18 11 40 21 44 20 45 21 27 52 l-12 22 -70 -33z"/>
<path d="M2446 1062 c-3 -9 -8 -73 -11 -142 -4 -69 -9 -133 -11 -142 -4 -13 3
-21 21 -28 44 -17 50 -13 106 65 29 41 54 75 55 75 2 0 0 -44 -2 -98 l-5 -98
33 -11 34 -10 88 121 c48 67 87 126 86 131 0 6 -15 15 -32 21 l-32 10 -49 -75
c-64 -99 -68 -103 -62 -55 17 146 16 163 -4 174 -36 19 -47 11 -105 -72 l-57
-83 7 70 c14 127 13 135 -23 150 -29 12 -33 12 -37 -3z"/>
<path d="M4334 995 l-32 -13 29 -89 c16 -48 28 -99 27 -113 -4 -32 -50 -60
-75 -44 -23 14 -29 27 -59 126 -26 85 -27 88 -53 82 -14 -4 -30 -10 -35 -14
-15 -14 52 -209 81 -236 14 -13 31 -24 37 -25 6 0 19 -2 29 -4 28 -5 84 14
116 40 44 38 46 75 10 190 -17 55 -34 103 -37 107 -4 4 -21 1 -38 -7z"/>
<path d="M2934 896 c-53 -24 -75 -61 -88 -151 -4 -26 19 -91 38 -111 28 -28
85 -45 128 -39 77 12 117 62 125 153 5 63 -14 107 -60 137 -34 22 -106 28
-143 11z m110 -72 c27 -26 25 -97 -2 -134 -21 -28 -61 -37 -91 -20 -40 21 -35
135 7 160 26 15 69 12 86 -6z"/>
<path d="M3888 878 c-109 -63 -82 -255 40 -287 66 -18 151 20 174 78 15 40 12
104 -9 147 -37 79 -128 107 -205 62z m128 -73 c8 -12 17 -40 20 -63 5 -35 2
-45 -20 -67 -50 -50 -115 -11 -121 72 -3 44 11 68 46 81 31 12 57 4 75 -23z"/>
<path d="M3209 842 c-1 -32 -5 -86 -13 -200 l-6 -83 37 3 c21 2 39 9 39 16 1
6 2 28 3 47 1 28 5 35 21 35 15 0 27 -14 44 -54 23 -51 26 -54 64 -58 l40 -3
-13 30 c-7 16 -18 42 -25 57 -11 24 -10 30 14 58 17 21 26 43 26 66 0 74 -36
99 -152 108 l-78 6 -1 -28z m152 -63 c4 -7 4 -22 -1 -33 -5 -16 -16 -21 -44
-21 -20 0 -36 3 -36 8 0 4 0 22 0 41 0 34 0 34 36 26 21 -5 40 -14 45 -21z"/>
<path d="M3713 862 c-39 -3 -44 -7 -84 -68 -23 -35 -44 -62 -48 -59 -5 6 -7
21 -10 92 -1 29 -3 31 -28 27 -41 -7 -55 -13 -50 -21 3 -5 8 -69 11 -143 4
-74 8 -136 10 -138 9 -8 42 -9 57 -1 11 6 15 17 12 34 -6 28 15 88 27 80 4 -3
25 -30 45 -60 32 -48 40 -55 63 -51 15 2 35 5 45 5 18 1 12 13 -46 86 -39 50
-55 80 -48 89 39 52 92 128 89 129 -1 1 -22 1 -45 -1z"/>
</g>
</svg>
